<?xml version="1.0" encoding="UTF-8" standalone="no"?>
<!-- Created with Inkscape (http://www.inkscape.org/) -->

<svg
   version="1.1"
   id="svg1"
   width="256"
   height="178.24001"
   viewBox="0 0 256 178.24001"
   sodipodi:docname="background.svg"
   inkscape:version="1.4.2 (ebf0e940, 2025-05-08)"
   xmlns:inkscape="http://www.inkscape.org/namespaces/inkscape"
   xmlns:sodipodi="http://sodipodi.sourceforge.net/DTD/sodipodi-0.dtd"
   xmlns="http://www.w3.org/2000/svg"
   xmlns:svg="http://www.w3.org/2000/svg">
  <defs
     id="defs1" />
  <sodipodi:namedview
     id="namedview1"
     pagecolor="#ffffff"
     bordercolor="#000000"
     borderopacity="0.25"
     inkscape:showpageshadow="2"
     inkscape:pageopacity="0.0"
     inkscape:pagecheckerboard="0"
     inkscape:deskcolor="#d1d1d1"
     inkscape:zoom="2.0332121"
     inkscape:cx="171.64958"
     inkscape:cy="113.1215"
     inkscape:window-width="1440"
     inkscape:window-height="785"
     inkscape:window-x="0"
     inkscape:window-y="25"
     inkscape:window-maximized="1"
     inkscape:current-layer="g1" />
  <g
     inkscape:groupmode="layer"
     inkscape:label="Image"
     id="g1">
    <g
       id="g267"
       transform="translate(0,0.01093372)">
      <path
         style="fill:#ffffff"
         d="M 91.6,178.20709 0,178.23999 V 151.8211 125.40221 l 0.4,0.23971 0.4,0.23971 14.08,10.76298 14.08,10.76297 0.8,0.51005 0.8,0.51005 6.24,1.92768 6.24,1.92767 7.912257,2.24852 7.912258,2.24852 7.447742,1.91831 7.447743,1.91831 5.6,1.31404 5.6,1.31404 8.033958,1.72044 8.033962,1.72043 8.60604,1.61262 8.60604,1.61263 7.84,1.26923 7.84,1.26922 8,1.11595 8,1.11594 8.64,0.98752 8.64,0.98751 8,0.75895 8,0.75895 z m 128,0.0109 -36.4,-0.022 2.72,-0.79067 2.72,-0.79067 8.48,-2.58776 8.48,-2.58775 9.44,-3.1894 9.44,-3.1894 8,-2.9722 8,-2.9722 7.2,-2.89743 7.2,-2.89742 0.56,-0.21475 0.56,-0.21474 v 12.67424 12.67424 z M 0.41462783,34.975902 0,35.231803 V 17.615901 0 H 26.08 52.16 V 0.14578429 0.29156858 L 26.494628,17.505785 0.82925565,34.720001 Z M 255.92469,9.9929315 255.84,19.76314 239.1714,9.96157 222.50279,0.16 l 16.63906,-0.08288043 16.63906,-0.08288043 0.11424,0.11424199 0.11424,0.11424199 z"
         id="path291" />
      <path
         style="fill:#a6e7c4"
         d="m 171.36,145.26692 -0.32,0.003 6.07582,-2.7315 6.07581,-2.73149 6.08419,-3.00921 6.08418,-3.00921 5.88632,-3.21875 5.88632,-3.21876 5.47368,-3.26583 5.47368,-3.26582 7.04,-4.68722 7.04,-4.68721 5.76,-4.30815 5.76,-4.30815 3.18881,-2.59883 3.18882,-2.598838 0.084,0.08396 0.084,0.08396 -1.13284,4.300558 -1.13284,4.30056 -1.95935,5.89124 -1.95935,5.89123 -0.66058,0.71244 -0.66058,0.71243 -11.64601,10.16463 -11.646,10.16463 -23.874,2.66366 -23.87399,2.66366 z M 89.689695,24.460656 84.49939,25.507513 84.713579,25.153757 84.927769,24.800001 95.610889,12.4 106.29401,0 h 45.94488 45.94488 l 1.41324,0.82821159 1.41323,0.82821161 -0.10512,0.1028795 L 200.8,1.8621822 147.84,12.637991 94.88,23.413799 Z"
         id="path290" />
      <path
         style="fill:#abefb7"
         d="m 133.44,149.41315 -0.16,-0.0238 -18.94655,-8.52148 -18.946547,-8.52149 0.0969,-0.0969 0.0969,-0.0969 2.369649,0.31924 2.369648,0.31924 4.64,0.47442 4.64,0.47442 6.08,0.47784 6.08,0.47784 6.56,0.39808 6.56,0.39808 16.32,0.008 16.32,0.008 7.45854,-0.42721 7.45854,-0.4272 6.46146,-0.55049 6.46146,-0.55048 0.1063,0.0767 0.1063,0.0767 -6.8263,3.34844 -6.8263,3.34844 -5.53244,2.46556 -5.53244,2.46555 -18.62756,2.05148 L 133.6,149.4369 Z M 253.71333,45.994899 253.6,46.269803 202.3221,29.294902 151.0442,12.32 l -0.002,-0.166195 -0.002,-0.166196 24.98747,-5.0865694 24.98748,-5.0865699 1.01252,0.5878149 1.01253,0.5878149 6.66888,4.4615196 6.66887,4.4615199 6.93113,5.203916 6.93112,5.203917 4.16,3.457821 4.16,3.457821 3.82298,3.380659 3.82298,3.380658 3.60045,3.461261 3.60044,3.46126 0.20991,1.399772 0.20991,1.399771 z"
         id="path289" />
      <path
         style="fill:#a1ded0"
         d="m 244.68571,117.78122 -0.72756,0.5723 2.00815,-5.97676 2.00814,-5.97676 1.43616,-5.6 1.43615,-5.599997 0.79808,-4.16 0.79808,-4.16 0.65296,-4.8 0.65295,-4.800001 0.32229,-3.84 0.32229,-3.84 v -8.32 -8.32 l -0.31674,-3.84 -0.31673,-3.840001 -0.18474,-1.12 -0.18475,-1.12 1.30478,1.264944 L 256,45.569888 255.996,76.784946 255.992,108 l -5.28964,4.60446 -5.28964,4.60446 z M 47.780439,67.749213 47.52,67.832049 40.857171,48.607996 34.194342,29.383942 34.777171,28.95738 35.36,28.530818 l 5.6209,-3.370055 5.6209,-3.370054 6.3791,-3.555636 6.3791,-3.555637 9.76,-4.8773644 9.76,-4.8773647 5.488177,-2.4678203 5.488176,-2.46782032 8.14416,0.08546686 L 106.14467,0.16 77.092775,33.913188 48.040878,67.666376 Z"
         id="path288" />
      <path
         style="fill:#b0f5a8"
         d="m 121.6,134.66784 -1.44,-0.0359 -3.04,-0.25528 -3.04,-0.25528 -4,-0.362 -4,-0.362 -5.5833,-0.64027 -5.583296,-0.64028 L 80.176702,125.5266 65.44,118.93637 l -0.09613,-0.071 -0.09613,-0.071 -4.941594,-14.19721 -4.941594,-14.197207 -0.0023,-0.08505 -0.0023,-0.08505 3.12,2.751669 3.12,2.751668 3.84,3.117416 3.84,3.117424 3.84,2.88342 3.84,2.88341 4.16,2.88581 4.16,2.88581 4.8,3.0458 4.8,3.04581 5.12,2.97475 5.119998,2.97476 8.96,4.57802 8.96,4.57802 z m 127.21914,-36.015673 -1.43612,1.200449 -0.45342,-0.726306 -0.45341,-0.726307 -18.6153,-33.236128 -18.6153,-33.236127 0.14661,-0.146618 0.14662,-0.146617 21.98747,7.302744 21.98747,7.302744 0.32394,0.8 0.32393,0.8 0.16117,10.110992 0.16117,10.110991 -0.3789,4.769009 -0.3789,4.769009 -0.64227,4.640001 -0.64228,4.64 -0.79913,4.16 -0.79913,4.16 -0.29405,1.125858 -0.29405,1.125858 z"
         id="path287" />
      <path
         style="fill:#9cd3dc"
         d="M 65.028146,118.69787 64.8,118.67574 39.04,107.09434 13.28,95.512931 l -0.09606,-1.141773 -0.09606,-1.141773 0.826606,-5.734691 0.826605,-5.734691 1.118926,-5.600001 1.118927,-5.6 1.405177,-5.44 1.405177,-5.44 1.490921,-4.8 1.490921,-4.8 1.846764,-4.960001 1.846763,-4.96 1.674841,-4.061297 1.674841,-4.061297 2.092724,-1.312134 2.092725,-1.312134 0.155183,0.155183 0.155183,0.155183 14.523893,41.858249 14.523892,41.858246 0.949168,2.64 0.949168,2.64 z M 255.92372,32.708755 255.84,45.37806 251.03601,40.68903 246.23202,36.000001 242.39601,32.618308 238.56,29.236614 234.4,25.778793 230.24,22.320972 223.36,17.155475 216.48,11.989979 211.06794,8.3482316 205.65588,4.7064843 201.97531,2.3532421 198.29474,0 h 1.57508 1.57507 l 6.55756,1.127521 6.55755,1.127521 8.76893,1.7711478 8.76894,1.7711477 11.71106,6.8850735 11.71107,6.885073 0.24372,0.235983 0.24373,0.235984 z"
         id="path286" />
      <path
         style="fill:#b5f999"
         d="m 193.72771,133.68326 -2.13252,0.17117 0.1224,-0.35378 0.12241,-0.35378 19.36,-31.36824 19.36,-31.36824 0.16,0.004 0.16,0.004 8.208,14.630819 8.20801,14.630819 -1.16801,1.078642 -1.168,1.07865 -6.4,4.80758 -6.4,4.8076 -7.04,4.68264 -7.04,4.68263 -5.28,3.15508 -5.28,3.15508 -5.82988,3.19208 -5.82988,3.1921 z M 72.064694,103.996 71.84,103.992 67.232807,100.29743 62.625614,96.602874 59.392807,93.782586 56.16,90.962298 55.649159,90.36115 55.138318,89.760003 51.388294,78.946629 47.638271,68.133255 l 9.666226,-11.266627 9.666227,-11.266627 0.720541,-0.75863 0.720542,-0.758631 -0.273262,1.462698 -0.273262,1.462698 -0.562521,3.935933 -0.562521,3.935933 -0.01012,11.04 -0.01012,11.04 0.419024,3.04 0.419025,3.040001 0.782542,4.582499 0.782542,4.582499 1.113884,4.377501 1.113884,4.377498 0.469243,1.52 0.469244,1.52 z"
         id="path285" />
      <path
         style="fill:#97c7e5"
         d="m 68.866096,156.61735 -1.053904,0.14693 -4.386096,-3.71643 -4.386096,-3.71643 -4.16,-3.69672 -4.16,-3.69673 -8.812263,-8.80898 -8.812262,-8.80899 -4.366643,-4.96 -4.366642,-4.96 -3.403155,-4.16 -3.403154,-4.16 -2.447611,-3.18665 -2.447611,-3.186657 0.0939,-2.090909 0.0939,-2.090909 0.07142,-0.07142 0.07142,-0.07142 60.091573,26.948975 60.091568,26.94898 -0.90722,0.23242 -0.90722,0.23242 -30.72,3.3628 -30.719996,3.36279 z M 231.44,5.7225658 231.2,5.6851315 223.04,3.9982028 214.88,2.3112741 208.48,1.185648 202.08,0.06002181 212.137,0.0300109 222.194,0 l 4.743,2.7637665 4.743,2.7637665 v 0.1162336 0.1162336 z"
         id="path284" />
      <path
         style="fill:#bafc8a"
         d="m 155.36,135.48153 -14.72,0.11333 -3.2,-0.1148 -3.2,-0.1148 -5.50449,-0.30861 -5.50449,-0.30861 -1.53551,-0.80346 -1.53551,-0.80345 0.64,-0.19642 0.64,-0.19643 43.36,-13.20192 43.36,-13.20191 0.084,0.0584 0.084,0.0584 -8.49902,13.75696 -8.49902,13.75696 -5.34495,0.38252 -5.34495,0.38253 -5.28,0.31398 -5.28,0.31398 z m -83.28,-80.03972 -5.52,5.593061 0.0083,-1.317435 0.0083,-1.317434 0.305837,-3.2 0.305837,-3.2 0.516412,-3.680001 0.516413,-3.68 0.507888,-0.8 0.507888,-0.8 7.511022,-8.726306 7.511022,-8.726306 0.670584,-0.156554 0.670585,-0.156554 17.440002,-3.527978 17.44,-3.527979 0.64,-0.177017 0.64,-0.177017 -4,2.366399 -4,2.366399 -2.72,1.710461 -2.72,1.710462 -2.88,1.927281 -2.88,1.927281 -4.000002,2.873221 -4,2.87322 -4.48,3.578311 -4.48,3.578311 -4,3.536557 -4,3.536557 z"
         id="path283" />
      <path
         style="fill:#91b7ef"
         d="m 176.08413,177.5569 -0.24413,-0.0431 -2.88,-0.28531 -2.88,-0.28531 -10.08,-1.12774 -10.08,-1.12773 -8,-1.11917 -8,-1.11918 -7.84,-1.26971 -7.84,-1.2697 -7.84,-1.46147 -7.84,-1.46147 -7.52,-1.58341 -7.52,-1.58341 -7.68,-1.79057 -7.68,-1.79057 -2.020297,-1.60322 -2.020296,-1.60323 0.260296,-0.21712 0.260297,-0.21712 11.04,-1.19769 11.04,-1.19768 64.24,-7.1152 64.24,-7.11519 v 0.0782 0.0782 l -21.43587,18.73551 -21.43587,18.73551 z M 30.251463,31.680001 H 30.113292 L 30.46962,30.65784 30.825947,29.635679 34.701834,21.93784 38.577722,14.24 40.913128,10.24 43.248534,6.2400002 47.918132,3.1200001 52.587731,0 71.173865,0.00664872 89.76,0.01329743 84.32,2.4716046 78.88,4.9299117 69.44,9.644274 60,14.358636 l -4.48,2.455959 -4.48,2.455959 -5.28,3.071449 -5.28,3.071448 -5.045184,3.133275 -5.045183,3.133275 z"
         id="path282" />
      <path
         style="fill:#bffc7a"
         d="m 119.98869,133.11204 -0.14869,-0.008 -7.04,-3.60685 -7.04,-3.60685 -5.44,-3.14588 -5.44,-3.14589 -4.8,-3.04604 -4.8,-3.04605 -4.16,-2.89244 -4.16,-2.89245 -2.30547,-1.70266 -2.305469,-1.70267 -0.325857,-1.18015 -0.325857,-1.18016 0.08071,-0.0807 0.0807,-0.0807 43.094493,9.81902 43.09448,9.81902 -0.38386,0.20893 -0.38387,0.20893 -18.57131,5.63476 -18.57132,5.63476 z M 104.64,28.787804 l -0.48,-0.0025 3.68,-2.4087 3.68,-2.408699 4.58582,-2.739849 4.58583,-2.73985 1.17417,-0.430649 1.17418,-0.430648 13.76,-2.747756 13.76,-2.747756 16.32,5.443364 16.32,5.443364 -7.04,-0.172303 -7.04,-0.172302 -9.76,0.347104 -9.76,0.347103 -6.4,0.488886 -6.4,0.488885 -5.92,0.643084 -5.92,0.643083 -6.40958,0.941235 -6.40959,0.941234 -3.51041,0.638062 -3.51042,0.638063 z"
         id="path281" />
      <path
         style="fill:#c4fb6b"
         d="m 109.05889,110.36253 -0.0989,-0.0375 -18.51975,-4.25827 -18.519751,-4.25828 -0.258866,-0.26425 -0.258866,-0.26425 -1.124847,-4.479997 -1.124846,-4.48 -0.656437,-3.68 -0.656437,-3.68 -0.498731,-3.52 -0.498732,-3.520001 -0.17112,-8.32 -0.17112,-8.32 0.958536,-1.12 0.958537,-1.12 0.141209,0.16 0.14121,0.16 19.985688,25.12649 19.985693,25.126488 0.2432,0.39351 0.2432,0.39351 z M 221.06104,53.120002 h -0.10593 l -3.19755,-2.139239 -3.19756,-2.139238 -4.03373,-2.473281 -4.03374,-2.473281 -3.76332,-2.136515 -3.76333,-2.136515 -6.60294,-3.295006 -6.60294,-3.295006 -4.0838,-1.799568 -4.08381,-1.799568 -4.07619,-1.638601 -4.0762,-1.6386 -4.14892,-1.522301 -4.14891,-1.5223 3.43891,-0.234397 3.43892,-0.234397 7.86396,0.235899 7.86395,0.235899 12.63998,4.214816 12.63998,4.214816 5.10881,9.108191 5.10881,9.108192 0.96074,1.68 0.96074,1.68 z"
         id="path280" />
      <path
         style="fill:#8ca8f5"
         d="m 185.44,177.49873 -2.24,0.60581 -2.88,-0.24814 -2.88,-0.24815 -0.46157,-0.0849 -0.46157,-0.085 39.18565,-34.23917 39.18565,-34.23917 0.55592,-0.43918 L 256,108.08164 v 22.40494 22.40494 l -9.68,3.84782 -9.68,3.84782 -6.72,2.46576 -6.72,2.46576 -10.88,3.62311 -10.88,3.6231 -6.88,2.06402 -6.88,2.06401 z M 12.47179,99.045077 12.236911,99.190241 8.877416,94.475122 5.5179213,89.760003 2.7589607,85.540308 0,81.320612 V 58.283499 35.246386 L 21.2,21.040644 42.4,6.8349015 42.757743,6.6246818 43.115486,6.4144621 40.413777,11.127231 37.712069,15.84 l -3.479843,7.040001 -3.479844,7.04 -1.899481,4.48 -1.89948,4.48 -2.093624,5.6 -2.093624,5.600001 -1.488434,4.8 -1.488434,4.8 -1.405177,5.44 -1.405177,5.44 -1.118927,5.6 -1.118926,5.600001 -0.799993,5.6 -0.799993,5.6 -0.217221,2.969955 -0.217221,2.969955 z"
         id="path279" />
      <path
         style="fill:#caf759"
         d="m 218.36115,90.205804 -0.10609,0.125801 -0.14096,-0.445801 -0.14096,-0.445801 -0.16867,-3.84 -0.16867,-3.84 -0.67278,-4.397411 -0.67278,-4.39741 -1.08707,-4.40259 -1.08707,-4.40259 -1.16748,-3.52 -1.16748,-3.52 -1.37537,-3.36 -1.37538,-3.36 -1.61827,-3.448425 -1.61827,-3.448424 0.22308,0.128843 0.22307,0.128842 3.84,2.334483 3.84,2.334484 3.68,2.462594 3.68,2.462594 4.61333,8.25045 4.61334,8.250449 -0.004,0.352055 -0.004,0.352055 -6.01587,9.76 -6.01586,9.760001 z M 86.067782,80.960002 H 85.861761 L 77.153109,70.021809 68.444457,59.083616 73.022228,54.47363 77.6,49.863643 l 4,-3.544003 4,-3.544004 4.500798,-3.59813 4.500798,-3.59813 4.673779,-3.342707 4.673775,-3.342707 1.51771,-0.208026 1.51772,-0.208025 0.10024,0.100247 0.10025,0.100248 -10.455633,26.140798 -10.455635,26.140798 z"
         id="path278" />
      <path
         style="fill:#8799f9"
         d="M 71.333333,159.97753 70.88,159.95505 64.32,158.21358 57.76,156.4721 50.4,154.37568 43.04,152.27925 36.8,150.35198 30.56,148.42471 29.719647,147.89236 28.879293,147.36 14.442363,136.32 0.00543372,125.28 0.00271686,103.38667 0,81.493336 l 0.12397532,0.133333 0.12397531,0.133334 4.06543947,6.08 4.0654396,6.08 L 12.955984,100 l 4.577155,6.08 3.414526,4.16 3.414525,4.16 4.366642,4.96 4.366643,4.96 8.812262,8.81498 8.812263,8.81497 4.64,4.11396 4.64,4.11396 5.76,4.79892 5.76,4.79893 0.133333,0.11214 L 71.786667,160 Z"
         id="path277" />
      <path
         style="fill:#cff24a"
         d="m 181.28,114.55279 -0.96,0.30822 1.10012,-0.8705 1.10012,-0.87051 3.42499,-2.72 3.42499,-2.72 3.63489,-3.24418 3.63489,-3.24419 4.01203,-4.116055 4.01202,-4.116059 3.38726,-4.081101 3.38726,-4.081101 2.72492,-3.839631 2.72492,-3.83963 0.18938,1.040975 0.18939,1.040974 0.31135,2.880001 0.31136,2.88 0.0745,2.896205 0.0745,2.896206 -4.73755,7.663794 -4.73756,7.663792 -0.0998,0.11125 -0.0998,0.11125 -13.06208,3.97104 -13.06209,3.97103 z M 98.537608,51.146668 98.24,51.253335 l 0.02795,-0.266667 0.02795,-0.266666 4.53205,-11.194486 4.53205,-11.194485 2.4,-0.403728 2.4,-0.403727 6.4,-0.945944 6.4,-0.945944 5.92,-0.643083 5.92,-0.643084 6.4,-0.48302 6.4,-0.48302 5.33957,-0.217046 5.33958,-0.217047 1.46042,0.408894 1.46043,0.408894 v 0.208485 0.208486 L 131.01761,37.610074 98.835217,51.040002 Z"
         id="path276" />
      <path
         style="fill:#d4ea3c"
         d="m 158.6503,121.41461 -0.4103,0.12243 -13.41539,-3.08233 -13.41539,-3.08234 1.09539,-0.21925 1.09539,-0.21924 5.28,-0.36798 5.28,-0.36798 6.4,-0.78865 6.4,-0.78865 5.76,-0.96878 5.76,-0.96878 5.28,-1.10502 5.28,-1.10501 6.65972,-1.70766 6.65972,-1.70766 -0.41972,0.381 -0.41972,0.38101 -2.24,1.89057 -2.24,1.89057 -3.39621,2.62663 -3.39621,2.62664 -10.59349,3.21903 -10.59349,3.21903 z m 47.69916,-76.012028 -0.42946,-0.03742 -34.94732,-4.696572 -34.94733,-4.696571 -0.1642,-0.1642 -0.1642,-0.164199 13.99153,-5.823385 13.99152,-5.823385 2.88,1.083622 2.88,1.083622 4.0762,1.634344 4.07619,1.634345 4.08381,1.799135 4.0838,1.799135 6.88,3.445645 6.88,3.445645 3.02283,1.718828 3.02284,1.718828 0.60662,1.04 0.60662,1.04 z"
         id="path275" />
      <path
         style="fill:#d9e22f"
         d="m 133.12,114.99716 -3.04,0.16435 -10.46284,-2.46075 -10.46283,-2.46076 -6.37654,-8 -6.376543,-7.999997 0.0503,-0.06426 0.0503,-0.06426 3.509073,1.800568 3.50908,1.800567 4.16,1.900113 4.16,1.900109 5.44,2.17024 5.44,2.17023 4.8,1.65519 4.8,1.65519 5.92,1.70495 5.92,1.70495 1.84,0.40412 1.84,0.40413 v 0.26908 0.26907 h -0.63474 -0.63475 l -5.20525,0.4564 -5.20526,0.4564 z M 215.69101,78.70063 215.52,78.681258 195.74364,60.103652 175.96729,41.526045 l 0.10217,-0.102172 0.10217,-0.102172 14.23419,1.889679 14.23418,1.889678 1.05606,0.186985 1.05606,0.186985 1.13272,2.462487 1.13273,2.462487 1.38178,3.36 1.38179,3.36 1.16307,3.52 1.16307,3.52 0.92479,3.68 0.92479,3.68 0.50089,2.671775 0.50089,2.671775 -0.54831,0.928225 -0.54832,0.928225 z"
         id="path274" />
      <path
         style="fill:#ded724"
         d="m 190.83936,105.42537 -1.00064,0.2082 0.73161,-3.61679 0.73162,-3.616777 3.43204,-17.600001 3.43205,-17.6 0.20546,-0.232482 0.20546,-0.232481 8.5569,8.012403 8.5569,8.012404 -1.59086,2.300078 -1.59087,2.300079 -2.37994,2.979659 -2.37995,2.97966 -2.75207,3.136447 -2.75206,3.136447 -4.47072,4.348792 -4.47071,4.348792 -0.73179,0.46369 -0.73179,0.46369 z m -81.30047,-4.95247 -0.25889,-0.007 -6.46781,-3.178711 -6.467812,-3.178714 -5.110264,-6.395548 -5.110264,-6.395548 3.053635,-7.618638 3.053636,-7.618639 0.326167,-0.8 0.326167,-0.8 0.290526,1.12 0.290527,1.12 0.971316,3.472856 0.971315,3.472856 1.690526,4.207145 1.690526,4.207144 1.528549,3.04 1.52856,3.04 1.91855,3.2 1.91855,3.2 1.81315,2.56 1.81315,2.56 0.24453,0.399997 0.24454,0.4 z"
         id="path273" />
      <path
         style="fill:#e3cc19"
         d="M 148.65329,113.55643 148,113.51285 l -0.72,-0.13868 -0.72,-0.13868 0.004,-0.21774 0.004,-0.21775 23.40987,-12.879827 23.40988,-12.87983 0.0594,0.07983 0.0594,0.07983 -1.81506,9.19547 -1.81505,9.195467 -0.13787,0.12349 -0.13786,0.12348 -7.36,1.78099 -7.36,1.78099 -4.16,0.81177 -4.16,0.81176 -4.8,0.79364 -4.8,0.79364 -3.82671,0.49465 -3.82671,0.49465 z M 95.979959,74.560002 h -0.26123 l -0.798216,-2.64 -0.798217,-2.64 -0.616152,-2.431952 -0.616152,-2.431952 2.610561,-6.528048 2.610561,-6.528048 7.824446,-3.273719 7.82444,-3.273718 2.6883,-1.13055 2.68831,-1.13055 -3.64977,3.764268 -3.64977,3.764269 -2.77999,3.475939 -2.77999,3.475939 -2.36659,3.564061 -2.3666,3.564061 -1.941304,3.52 -1.941305,3.52 -0.710052,1.68 -0.710051,1.68 z"
         id="path272" />
      <path
         style="fill:#e8bf11"
         d="m 145.87419,112.94162 -0.43419,-0.0184 -4.64,-1.28287 -4.64,-1.28288 -6.56,-2.18199 -6.56,-2.18199 -5.44,-2.15976 -5.44,-2.15976 -1.1893,-0.59804 -1.1893,-0.59804 -0.34196,-0.638952 -0.34196,-0.638955 0.41126,0.0051 0.41126,0.0051 28.11373,1.255267 28.11374,1.25526 0.10281,0.10282 0.10281,0.10281 -10.02235,5.51679 -10.02236,5.51678 z m -32.23047,-62.736287 -2.67627,1.005322 1.61285,-1.845327 1.61284,-1.845327 2.66343,-2.589791 2.66343,-2.589791 7.84,-3.245134 7.84,-3.245134 10.56,1.409521 10.56,1.40952 0.8,0.105405 0.8,0.105404 -5.28,0.888346 -5.28,0.888346 -5.09827,1.101242 -5.09827,1.101242 -4.82173,1.311501 -4.82173,1.311501 -5.6,1.858916 -5.6,1.858917 z"
         id="path271" />
      <path
         style="fill:#edb109"
         d="m 130.54857,100.11387 -3.02857,-0.0461 -8,-0.405011 -8,-0.405013 -1.33125,-0.02886 -1.33125,-0.02886 -2.38211,-3.6 -2.38211,-3.6 -1.28825,-2.24 -1.28825,-2.24 -1.33614,-2.66821 -1.33615,-2.66821 -1.450718,-3.542033 -1.450717,-3.542033 0.350789,-0.769898 0.350789,-0.769898 1.037683,0.731166 1.037684,0.731166 16.96,12.131746 16.96,12.131746 0.46857,0.437229 0.46857,0.437223 z M 188.15467,53.09564 188,53.071279 l -4.64,-1.756631 -4.64,-1.75663 -5.28,-1.601119 -5.28,-1.601119 -5.12,-1.267077 -5.12,-1.267076 -5.84811,-1.110813 -5.84812,-1.110813 -0.87188,-0.0097 -0.87189,-0.0097 0.48,-0.271496 0.48,-0.271496 4.67866,-0.846953 4.67866,-0.846953 2.04134,-0.17942 2.04134,-0.179419 8.43303,1.145473 8.43304,1.145472 5.16696,4.850591 5.16697,4.850591 1.11467,1.071536 1.11466,1.071536 z"
         id="path270" />
      <path
         style="fill:#f2a204"
         d="m 112.8828,67.944894 -0.0828,17.16595 -8.0585,-5.779051 -8.058498,-5.779051 0.614905,-1.434515 0.614905,-1.434515 1.911335,-3.421855 1.911333,-3.421855 2.21444,-3.314972 2.21444,-3.314971 2.35782,-2.995326 2.35782,-2.995326 0.93189,-0.331146 0.93189,-0.331145 0.11092,0.110914 0.11091,0.110914 z m 84.12451,1.446736 -1.35821,6.831629 -1.77489,-3.634759 -1.77488,-3.634759 -1.87809,-3.03687 -1.87809,-3.036869 -2.78626,-3.701947 -2.78625,-3.701947 -3.1413,-3.303733 -3.14131,-3.303734 0.79599,0.246101 0.79598,0.246101 5.06925,1.866804 5.06924,1.866804 2.61076,2.404459 2.61075,2.404459 2.46277,2.328316 2.46276,2.328317 z"
         id="path269" />
      <path
         style="fill:#f79300"
         d="m 178.72202,95.040003 h -0.13412 l 1.78109,-2.48 1.78109,-2.48 1.75905,-2.986201 1.75904,-2.9862 1.36976,-2.9338 1.36976,-2.9338 1.01087,-2.867176 1.01086,-2.867176 0.59087,-2.252824 0.59087,-2.252824 2.01769,4.104385 2.01768,4.104386 -1.05595,5.378156 -1.05595,5.378157 -7.33925,4.037458 -7.33925,4.037459 z M 113.36,65.081854 l -0.4,0.235919 v -7.395214 -7.395214 l 1.11411,-0.465507 1.11412,-0.465506 4.72588,-1.616681 4.72589,-1.616682 5.44,-1.545907 5.44,-1.545907 4.32778,-0.987217 4.32778,-0.987218 0.91018,0.243421 0.91018,0.24342 L 129.87796,53.314748 113.76,64.845935 Z"
         id="path268" />
      <path
         style="fill:#fd8100"
         d="m 165.18603,101.71506 -1.50603,-0.0449 -14.88,-0.69398 -14.88,-0.69397 -10.4692,-7.501084 -10.46921,-7.501083 -0.0108,-9.920737 -0.0108,-9.920736 16.63777,-11.914102 16.63778,-11.914102 5.20222,0.971908 5.20223,0.971907 4,0.942766 4,0.942765 5.85387,1.655494 5.85387,1.655495 3.00654,3.132384 3.00654,3.132385 2.31102,2.972286 2.31103,2.972286 2.18857,3.343132 2.18856,3.343133 v 0.895055 0.895055 l -1.44677,4.401813 -1.44676,4.401812 -2.05539,4.169079 -2.05539,4.169079 -2.56807,3.830921 -2.56806,3.830922 -0.41336,0.51665 -0.41336,0.516651 -5.85039,3.24335 -5.85038,3.243346 z"
         id="path267" />
    </g>
  </g>
</svg>
