<?xml version="1.0" standalone="no"?>
<!DOCTYPE svg PUBLIC "-//W3C//DTD SVG 20010904//EN"
 "http://www.w3.org/TR/2001/REC-SVG-20010904/DTD/svg10.dtd">
<svg version="1.0" xmlns="http://www.w3.org/2000/svg"
 width="800.000000pt" height="557.000000pt" viewBox="0 0 800.000000 557.000000"
 preserveAspectRatio="xMidYMid meet">

<g transform="translate(0.000000,557.000000) scale(0.100000,-0.100000)"
fill="#000000" stroke="none">
<path d="M0 5020 c0 -449 2 -550 13 -543 62 38 1617 1085 1617 1088 0 3 -367
5 -815 5 l-815 0 0 -550z"/>
<path d="M6965 5558 c52 -30 974 -572 1003 -590 l32 -20 0 311 0 311 -527 0
c-403 -1 -523 -3 -508 -12z"/>
<path d="M0 826 l0 -826 2863 1 2862 1 -250 24 c-1207 114 -2318 305 -3403
585 -447 115 -1093 305 -1142 337 -14 8 -223 167 -465 352 -242 185 -446 340
-452 344 -10 6 -13 -161 -13 -818z"/>
<path d="M7790 709 c-557 -228 -1309 -488 -1980 -683 l-85 -25 1138 0 1137 -1
0 395 c0 217 -3 395 -7 394 -5 0 -96 -36 -203 -80z"/>
</g>
</svg>
