<svg version="1.1" id="Layer_1" xmlns="http://www.w3.org/2000/svg" xmlns:xlink="http://www.w3.org/1999/xlink" x="0px" y="0px"
	 width="100%" viewBox="0 0 800 557" enable-background="new 0 0 800 557" xml:space="preserve">
<path fill="#000000" opacity="1.000000" stroke="none" 
	d="
M561.000000,558.000000 
	C374.444824,558.000000 187.889664,558.000000 1.000000,558.000000 
	C1.000000,503.644470 1.000000,449.288269 1.374501,394.466370 
	C4.063240,395.399750 6.523346,396.606018 8.668067,398.229065 
	C22.802090,408.924988 36.895744,419.674805 50.947525,430.478668 
	C61.529804,438.614899 71.934364,446.985321 82.609749,454.996033 
	C87.491302,458.659119 92.428337,462.894836 98.043259,464.814514 
	C115.882652,470.913513 133.965775,476.353516 152.116547,481.474548 
	C175.999115,488.212646 200.035400,494.405945 224.399323,500.914307 
	C236.260498,503.681152 247.693741,506.524780 259.202515,509.020081 
	C282.749756,514.125610 306.273590,519.374573 329.926300,523.947998 
	C354.440308,528.687866 379.078308,532.798218 403.694641,536.993042 
	C420.347931,539.830872 437.025024,542.568237 453.751038,544.928467 
	C470.058014,547.229492 486.422455,549.161438 502.795288,550.947327 
	C519.515503,552.771057 536.276611,554.220032 553.460571,555.906738 
	C555.827881,555.998596 557.771790,555.881104 559.669495,556.124390 
	C560.184692,556.190430 560.560303,557.345032 561.000000,558.000000 
z"/>
<path fill="#8DA9F6" opacity="1.000000" stroke="none" 
	d="
M561.467590,558.000000 
	C560.560303,557.345032 560.184692,556.190430 559.669495,556.124390 
	C557.771790,555.881104 555.827881,555.998596 553.638367,555.635803 
	C558.004822,551.016296 562.542664,546.636780 567.281616,542.487000 
	C579.127319,532.114197 591.098022,521.884338 602.955017,511.524384 
	C614.691650,501.269684 626.312805,490.882751 638.054199,480.633636 
	C649.915833,470.279480 661.953064,460.124573 673.712585,449.656799 
	C676.853333,446.861084 679.259216,443.239868 682.356689,439.957520 
	C684.737244,438.837982 687.049622,438.089081 688.742126,436.624054 
	C697.872864,428.720795 706.807129,420.591156 715.891724,412.633942 
	C725.093994,404.573700 734.525635,396.770782 743.607300,388.578613 
	C750.943604,381.960754 757.908997,374.931671 765.399536,368.050873 
	C769.743896,364.940582 773.824341,361.980682 777.691162,358.764008 
	C785.522034,352.249664 793.237122,345.596130 801.000000,339.000000 
	C801.000000,385.354218 801.000000,431.708466 800.615784,478.536560 
	C791.551819,482.462952 782.829224,485.811829 774.199585,489.385345 
	C730.075989,507.656860 684.963867,523.201172 639.564514,537.908813 
	C620.402527,544.116577 600.935242,549.379700 581.643921,555.195557 
	C580.272217,555.609192 579.207520,557.041443 578.000000,558.000000 
	C572.645081,558.000000 567.290100,558.000000 561.467590,558.000000 
z"/>
<path fill="#A2DFD1" opacity="1.000000" stroke="none" 
	d="
M280.000000,0.999999 
	C297.020905,1.000000 314.041779,1.000000 331.472595,1.341203 
	C326.456390,8.143472 321.075348,14.643077 315.594818,21.057655 
	C303.856262,34.796795 292.018982,48.451801 280.319946,62.224331 
	C275.409729,68.004799 270.747589,73.995964 265.687500,80.073166 
	C248.602600,99.818626 231.802856,119.382278 214.744324,139.081009 
	C213.971939,139.786697 213.458298,140.357300 212.696381,141.076508 
	C211.949692,141.803574 211.451294,142.382019 210.703629,143.178436 
	C205.293060,149.440781 200.137009,155.489639 194.969223,161.528473 
	C187.542130,170.207413 180.144211,178.911728 172.663452,187.544189 
	C165.840591,195.417465 158.924011,203.209534 151.785629,210.793549 
	C150.692047,208.567749 149.761520,206.621109 149.047882,204.597946 
	C145.341614,194.090790 141.670197,183.571228 138.024429,173.042908 
	C128.666107,146.017548 119.327728,118.985291 110.159111,91.669601 
	C112.248627,90.075851 114.085770,88.639626 116.083763,87.480705 
	C135.480698,76.229660 154.571793,64.392700 174.400131,53.958019 
	C202.936676,38.940632 232.013962,24.950678 260.862976,10.527243 
	C267.236572,7.340690 273.620728,4.175189 280.000000,0.999999 
z"/>
<path fill="#889AFA" opacity="1.000000" stroke="none" 
	d="
M224.005585,500.833496 
	C200.035400,494.405945 175.999115,488.212646 152.116547,481.474548 
	C133.965775,476.353516 115.882652,470.913513 98.043259,464.814514 
	C92.428337,462.894836 87.491302,458.659119 82.609749,454.996033 
	C71.934364,446.985321 61.529804,438.614899 50.947525,430.478668 
	C36.895744,419.674805 22.802090,408.924988 8.668067,398.229065 
	C6.523346,396.606018 4.063240,395.399750 1.374501,394.000366 
	C1.000000,348.979095 1.000000,303.958221 1.293736,258.637756 
	C2.363277,259.186890 3.254922,259.956360 3.897573,260.896118 
	C14.178079,275.929504 24.370186,291.023926 34.759949,305.981171 
	C35.953648,307.699615 38.209877,308.679993 40.027596,310.353333 
	C40.889427,312.137848 41.539879,313.692200 42.531357,314.985016 
	C47.476364,321.432770 52.258350,328.029694 57.559162,334.176178 
	C77.263229,357.023773 96.573936,380.249573 117.111893,402.329193 
	C142.349777,429.461456 169.758301,454.429749 198.003723,478.433563 
	C203.167603,482.821930 208.656250,486.828156 214.161087,491.302002 
	C217.553329,494.673279 220.779465,497.753387 224.005585,500.833496 
z"/>
<path fill="#8DA9F6" opacity="1.000000" stroke="none" 
	d="
M1.000000,255.000000 
	C1.000000,206.979111 1.000000,158.958206 1.375237,110.468338 
	C3.541265,108.993805 5.411281,108.106285 7.111081,106.965195 
	C37.050854,86.866173 66.937874,66.688385 96.910591,46.638710 
	C107.504036,39.552425 118.295761,32.762554 128.984497,26.222305 
	C128.006897,28.869141 127.171410,31.197166 126.056450,33.382614 
	C115.665085,53.751034 105.175682,74.069809 94.906242,94.499275 
	C94.175949,95.952080 94.958969,98.165596 94.879570,100.340599 
	C87.971901,117.459618 80.700821,134.075882 74.584129,151.106766 
	C62.319160,185.256500 53.365986,220.343994 47.282494,256.113281 
	C45.035610,269.324371 43.776958,282.703552 42.049236,296.338104 
	C42.043262,297.113434 42.055641,297.556702 42.045940,298.248352 
	C42.023857,298.496674 41.981789,298.993530 41.755714,299.230103 
	C41.365498,300.312042 41.201351,301.157440 41.027809,302.431000 
	C41.000095,304.572784 40.981777,306.286407 40.639732,307.915161 
	C39.394608,306.905640 38.308651,306.095001 37.576672,305.039001 
	C27.788166,290.917419 18.123941,276.708893 8.235297,262.658173 
	C6.234952,259.815887 3.432604,257.538055 1.000000,255.000000 
z"/>
<path fill="#A7E8C5" opacity="1.000000" stroke="none" 
	d="
M265.972656,79.891342 
	C270.747589,73.995964 275.409729,68.004799 280.319946,62.224331 
	C292.018982,48.451801 303.856262,34.796795 315.594818,21.057655 
	C321.075348,14.643077 326.456390,8.143472 331.941254,1.341203 
	C428.020905,1.000000 524.041809,1.000000 620.743591,1.244701 
	C622.956116,2.655848 624.487671,3.822294 625.661377,5.147432 
	C616.373840,7.203640 607.457825,9.167966 598.512268,10.987171 
	C558.640442,19.095663 518.755920,27.141411 478.897736,35.316177 
	C477.155823,35.673428 475.628418,37.076374 473.797852,38.133171 
	C473.339661,38.491673 473.137421,38.750435 472.564331,39.036827 
	C471.144226,39.069828 470.121002,38.985737 469.155029,39.182564 
	C454.214203,42.226845 439.280121,45.304218 424.345917,48.380848 
	C410.227509,51.289394 396.110809,54.206017 381.630280,57.127064 
	C379.182800,57.738949 377.098419,58.342857 374.734314,58.799652 
	C348.363312,63.915245 322.283112,69.233788 296.175110,74.412376 
	C286.140167,76.402832 276.042023,78.074440 265.972656,79.891342 
z"/>
<path fill="#000000" opacity="1.000000" stroke="none" 
	d="
M128.996964,25.837360 
	C118.295761,32.762554 107.504036,39.552425 96.910591,46.638710 
	C66.937874,66.688385 37.050854,86.866173 7.111081,106.965195 
	C5.411281,108.106285 3.541265,108.993805 1.375237,109.999680 
	C1.000000,73.725410 1.000000,37.450813 1.000000,1.000000 
	C54.687431,1.000000 108.375061,1.000000 162.527695,1.365437 
	C162.261017,2.496735 161.634903,3.415847 160.780930,4.004234 
	C153.878342,8.760145 146.932938,13.453925 139.671204,18.173916 
	C138.190186,19.106215 137.038544,20.031258 135.597824,21.064407 
	C134.540451,21.837215 133.772156,22.501919 132.681076,23.167885 
	C131.237839,24.058554 130.117401,24.947958 128.996964,25.837360 
z"/>
<path fill="#000000" opacity="1.000000" stroke="none" 
	d="
M578.468628,558.000000 
	C579.207520,557.041443 580.272217,555.609192 581.643921,555.195557 
	C600.935242,549.379700 620.402527,544.116577 639.564514,537.908813 
	C684.963867,523.201172 730.075989,507.656860 774.199585,489.385345 
	C782.829224,485.811829 791.551819,482.462952 800.615784,479.005219 
	C801.000000,505.295135 801.000000,531.590271 801.000000,558.000000 
	C726.979126,558.000000 652.958252,558.000000 578.468628,558.000000 
z"/>
<path fill="#9DD4DD" opacity="1.000000" stroke="none" 
	d="
M626.019287,4.988751 
	C624.487671,3.822294 622.956116,2.655848 621.212280,1.244701 
	C626.022095,1.000000 631.044189,1.000000 636.735229,1.306735 
	C639.541687,2.382110 641.621765,3.452551 643.825806,3.872435 
	C664.601440,7.830385 685.390991,11.716714 706.193909,15.528913 
	C711.446838,16.491522 716.761841,17.115019 722.424683,17.946724 
	C727.616821,20.560087 732.521729,22.967842 737.232178,25.709858 
	C753.409302,35.126793 769.479309,44.728012 785.676575,54.109913 
	C790.641907,56.985962 795.884399,59.383389 801.000000,62.000000 
	C801.000000,88.687561 801.000000,115.375122 800.661987,142.473846 
	C798.230347,141.582275 796.136841,140.279510 793.977783,138.630920 
	C792.631104,136.379807 791.623352,134.196930 790.020508,132.618271 
	C783.744812,126.437576 777.429321,120.281586 770.856750,114.421280 
	C756.984009,102.051918 743.280151,89.458450 728.895569,77.705292 
	C699.668335,53.824703 668.971985,31.914156 637.179749,11.562706 
	C634.710999,9.982370 631.824524,9.054680 628.980713,7.644620 
	C628.590027,7.259836 628.325195,7.095331 627.955444,6.673677 
	C627.257202,5.913102 626.638245,5.450932 626.019287,4.988751 
z"/>
<path fill="#92B8F0" opacity="1.000000" stroke="none" 
	d="
M140.000610,18.166664 
	C146.932938,13.453925 153.878342,8.760145 160.780930,4.004234 
	C161.634903,3.415847 162.261017,2.496735 162.996353,1.365437 
	C201.687561,1.000000 240.375122,1.000000 279.531342,0.999999 
	C273.620728,4.175189 267.236572,7.340690 260.862976,10.527243 
	C232.013962,24.950678 202.936676,38.940632 174.400131,53.958019 
	C154.571793,64.392700 135.480698,76.229660 116.083763,87.480705 
	C114.085770,88.639626 112.248627,90.075851 109.847046,91.722855 
	C108.581261,92.388397 107.805290,92.714478 106.736389,93.182060 
	C105.297203,93.890099 104.150932,94.456627 103.060753,94.664413 
	C114.154259,73.264084 125.105324,52.176369 136.302139,31.219952 
	C138.534988,27.040876 140.761276,23.089518 140.000610,18.166664 
z"/>
<path fill="#000000" opacity="1.000000" stroke="none" 
	d="
M801.000000,61.531342 
	C795.884399,59.383389 790.641907,56.985962 785.676575,54.109913 
	C769.479309,44.728012 753.409302,35.126793 737.232178,25.709858 
	C732.521729,22.967842 727.616821,20.560087 722.396484,17.581285 
	C715.774414,13.358216 709.502563,9.637659 703.370728,5.698956 
	C701.391174,4.427405 699.779785,2.582574 698.000000,1.000003 
	C732.241516,1.000000 766.483032,1.000000 801.000000,1.000000 
	C801.000000,21.020052 801.000000,41.041367 801.000000,61.531342 
z"/>
<path fill="#A2DFD1" opacity="1.000000" stroke="none" 
	d="
M794.043274,138.976776 
	C796.136841,140.279510 798.230347,141.582275 800.661987,142.942505 
	C801.000000,208.020889 801.000000,273.041779 801.000000,338.531342 
	C793.237122,345.596130 785.522034,352.249664 777.691162,358.764008 
	C773.824341,361.980682 769.743896,364.940582 765.404236,367.653687 
	C768.573303,356.079865 772.403809,344.953217 775.522400,333.630432 
	C777.835022,325.233704 779.222595,316.582184 781.279419,307.799805 
	C782.410522,305.422607 783.624878,303.362518 784.098938,301.144226 
	C786.038208,292.070068 788.235657,283.011444 789.446716,273.829529 
	C791.934326,254.969879 794.568481,236.080704 795.781860,217.116608 
	C796.831360,200.714035 796.197571,184.187637 795.906006,167.723068 
	C795.783569,160.805939 794.626282,153.907135 793.952637,146.752380 
	C793.965820,146.504776 793.958801,146.008896 793.969177,145.570068 
	C794.000793,143.079758 794.022034,141.028259 794.043274,138.976776 
z"/>
<path fill="#98C8E6" opacity="1.000000" stroke="none" 
	d="
M697.531372,1.000003 
	C699.779785,2.582574 701.391174,4.427405 703.370728,5.698956 
	C709.502563,9.637659 715.774414,13.358216 722.020142,17.528904 
	C716.761841,17.115019 711.446838,16.491522 706.193909,15.528913 
	C685.390991,11.716714 664.601440,7.830385 643.825806,3.872435 
	C641.621765,3.452551 639.541687,2.382110 637.202026,1.306735 
	C657.020874,1.000000 677.041809,1.000000 697.531372,1.000003 
z"/>
<path fill="#8DA9F6" opacity="1.000000" stroke="none" 
	d="
M1.000000,255.375000 
	C3.432604,257.538055 6.234952,259.815887 8.235297,262.658173 
	C18.123941,276.708893 27.788166,290.917419 37.576672,305.039001 
	C38.308651,306.095001 39.394608,306.905640 40.609016,308.205200 
	C40.592506,309.054230 40.282978,309.528381 39.973450,310.002563 
	C38.209877,308.679993 35.953648,307.699615 34.759949,305.981171 
	C24.370186,291.023926 14.178079,275.929504 3.897573,260.896118 
	C3.254922,259.956360 2.363277,259.186890 1.293736,258.169067 
	C1.000000,257.250000 1.000000,256.500000 1.000000,255.375000 
z"/>
<path fill="#92B8F0" opacity="1.000000" stroke="none" 
	d="
M224.399323,500.914307 
	C220.779465,497.753387 217.553329,494.673279 214.483215,491.052612 
	C219.074234,490.009430 223.506592,489.482361 227.944672,489.008759 
	C241.289963,487.584717 254.645096,486.249359 267.982208,484.752960 
	C284.442780,482.906128 300.882019,480.868622 317.343811,479.032990 
	C330.846558,477.527283 344.373383,476.238373 357.881195,474.776367 
	C372.207794,473.225708 386.538361,471.695496 400.837799,469.919678 
	C405.605957,469.327515 410.283386,468.005035 415.398743,467.086823 
	C417.915497,467.364166 420.075714,467.940063 422.149445,467.715820 
	C432.496368,466.597076 442.808716,465.158508 453.155670,464.040131 
	C466.964600,462.547577 480.804657,461.342102 494.612030,459.836212 
	C508.741333,458.295197 522.847290,456.540222 537.225098,454.902130 
	C537.661438,454.914612 537.835999,454.903809 538.411133,454.906128 
	C541.211365,454.580261 543.611145,454.241302 546.434204,453.924805 
	C549.478088,453.631073 552.095703,453.287506 554.719788,453.003418 
	C564.903198,451.900787 575.094177,450.866821 585.271851,449.714111 
	C598.725708,448.190308 612.167236,446.558075 625.618530,445.011292 
	C639.725769,443.389130 653.827209,441.703430 667.954773,440.278931 
	C672.599548,439.810577 677.317810,440.070648 682.002441,439.997650 
	C679.259216,443.239868 676.853333,446.861084 673.712585,449.656799 
	C661.953064,460.124573 649.915833,470.279480 638.054199,480.633636 
	C626.312805,490.882751 614.691650,501.269684 602.955017,511.524384 
	C591.098022,521.884338 579.127319,532.114197 567.281616,542.487000 
	C562.542664,546.636780 558.004822,551.016296 553.197632,555.562134 
	C536.276611,554.220032 519.515503,552.771057 502.795288,550.947327 
	C486.422455,549.161438 470.058014,547.229492 453.751038,544.928467 
	C437.025024,542.568237 420.347931,539.830872 403.694641,536.993042 
	C379.078308,532.798218 354.440308,528.687866 329.926300,523.947998 
	C306.273590,519.374573 282.749756,514.125610 259.202515,509.020081 
	C247.693741,506.524780 236.260498,503.681152 224.399323,500.914307 
z"/>
<path fill="#A7E8C5" opacity="1.000000" stroke="none" 
	d="
M682.356689,439.957520 
	C677.317810,440.070648 672.599548,439.810577 667.954773,440.278931 
	C653.827209,441.703430 639.725769,443.389130 625.618530,445.011292 
	C612.167236,446.558075 598.725708,448.190308 585.271851,449.714111 
	C575.094177,450.866821 564.903198,451.900787 554.719788,453.003418 
	C552.095703,453.287506 549.478088,453.631073 546.534607,453.604675 
	C547.008911,452.719299 547.750244,452.058350 548.611511,451.651184 
	C566.655518,443.121460 584.785767,434.768799 602.709717,425.994598 
	C606.521057,424.128906 609.590576,420.748108 613.313171,417.900604 
	C630.031311,408.649963 646.962097,400.383270 662.730408,390.298981 
	C691.087769,372.163696 718.895691,353.152618 746.618835,334.051300 
	C756.260071,327.408417 764.971069,319.415375 774.381470,311.988281 
	C775.109314,311.628937 775.562622,311.320312 776.301086,310.847473 
	C778.064880,309.803558 779.543518,308.923859 781.022217,308.044128 
	C779.222595,316.582184 777.835022,325.233704 775.522400,333.630432 
	C772.403809,344.953217 768.573303,356.079865 765.043640,367.687866 
	C757.908997,374.931671 750.943604,381.960754 743.607300,388.578613 
	C734.525635,396.770782 725.093994,404.573700 715.891724,412.633942 
	C706.807129,420.591156 697.872864,428.720795 688.742126,436.624054 
	C687.049622,438.089081 684.737244,438.837982 682.356689,439.957520 
z"/>
<path fill="#B6FA9A" opacity="1.000000" stroke="none" 
	d="
M152.048752,211.037399 
	C158.924011,203.209534 165.840591,195.417465 172.663452,187.544189 
	C180.144211,178.911728 187.542130,170.207413 194.969223,161.528473 
	C200.137009,155.489639 205.293060,149.440781 210.938843,143.459351 
	C210.070648,155.843628 208.583054,168.152588 207.451218,180.494171 
	C207.130264,183.993866 205.036621,188.023544 208.999298,191.256836 
	C209.012970,191.684845 209.019424,191.856018 209.019012,192.494095 
	C208.482178,219.582886 208.879700,246.174713 214.103363,272.394196 
	C216.951126,286.688171 220.646713,300.813263 223.981705,315.361359 
	C224.350204,316.799225 224.696945,317.890259 225.031860,319.316864 
	C225.020004,320.100037 225.019943,320.547577 224.654266,320.982544 
	C223.370300,320.630249 222.277496,320.504364 221.559631,319.918823 
	C210.111404,310.580719 198.764130,301.118256 187.272552,291.834259 
	C182.981598,288.367615 178.379456,285.286224 173.669525,281.772461 
	C168.555634,267.624146 163.626633,253.754715 158.850616,239.832794 
	C155.798874,230.937073 152.973450,221.963699 150.299011,212.887543 
	C151.050583,212.179108 151.549667,211.608261 152.048752,211.037399 
z"/>
<path fill="#BBFD8B" opacity="1.000000" stroke="none" 
	d="
M265.687500,80.073151 
	C276.042023,78.074440 286.140167,76.402832 296.175110,74.412376 
	C322.283112,69.233788 348.363312,63.915245 374.669830,59.147480 
	C374.142181,60.477890 373.545807,61.553150 372.633179,62.110676 
	C365.712494,66.338425 358.583527,70.241432 351.805939,74.682755 
	C344.377991,79.550255 337.256470,84.885330 329.674835,90.155350 
	C327.267090,91.295502 325.007263,92.040253 323.135651,93.342781 
	C314.974274,99.022514 306.637085,104.505051 298.896606,110.722580 
	C283.026917,123.469948 267.117157,136.215530 251.947800,149.771912 
	C239.099106,161.254395 227.269638,173.877380 214.725281,186.138077 
	C213.646912,186.856033 212.832397,187.431549 211.641342,188.004883 
	C210.512512,188.001801 209.760223,188.000900 209.005981,187.571472 
	C209.005249,185.428360 209.006470,183.713745 209.320404,181.922897 
	C210.982437,180.684036 213.298874,179.615677 210.005966,177.556580 
	C210.005219,174.741257 210.006454,172.370209 210.320404,169.922897 
	C211.982437,168.684036 214.298874,167.615677 211.006073,165.600677 
	C211.005371,164.133377 211.006531,163.066269 211.320404,161.922897 
	C212.982437,160.684036 215.298874,159.615677 212.006088,157.600677 
	C212.005386,156.133377 212.006531,155.066269 212.320404,153.922897 
	C213.982437,152.684036 216.298874,151.615677 213.006805,149.667236 
	C213.006363,148.888794 213.007019,148.443970 213.320404,147.922897 
	C214.982437,146.684036 217.298874,145.615677 214.005600,143.667847 
	C214.000656,142.890884 213.998047,142.446884 214.220840,141.759399 
	C214.631866,140.659256 214.817490,139.802582 215.003113,138.945923 
	C231.802856,119.382278 248.602600,99.818626 265.687500,80.073151 
z"/>
<path fill="#A2DFD1" opacity="1.000000" stroke="none" 
	d="
M151.785629,210.793549 
	C151.549667,211.608261 151.050583,212.179108 150.050827,212.625671 
	C139.691284,184.138443 129.915894,155.746094 119.932983,127.426895 
	C115.863609,115.883049 111.344048,104.497910 107.029312,93.040558 
	C107.805290,92.714478 108.581261,92.388397 109.669312,92.009056 
	C119.327728,118.985291 128.666107,146.017548 138.024429,173.042908 
	C141.670197,183.571228 145.341614,194.090790 149.047882,204.597946 
	C149.761520,206.621109 150.692047,208.567749 151.785629,210.793549 
z"/>
<path fill="#B6FA9A" opacity="1.000000" stroke="none" 
	d="
M213.995438,142.002899 
	C213.998047,142.446884 214.000656,142.890884 213.951691,144.008301 
	C213.602646,145.787521 213.305161,146.893341 213.007675,147.999146 
	C213.007019,148.443970 213.006363,148.888794 212.952911,150.007660 
	C212.602661,151.787537 212.305176,152.893341 212.007690,153.999146 
	C212.006531,155.066269 212.005386,156.133377 211.952179,157.941101 
	C211.602646,159.787521 211.305161,160.893341 211.007675,161.999146 
	C211.006531,163.066269 211.005371,164.133377 210.952179,165.941101 
	C210.602646,167.787521 210.305161,168.893341 210.007675,169.999146 
	C210.006454,172.370209 210.005219,174.741257 209.952072,177.897018 
	C209.602661,179.787537 209.305176,180.893341 209.007690,181.999146 
	C209.006470,183.713745 209.005249,185.428360 209.003326,187.946472 
	C208.999100,189.500000 208.995590,190.250000 208.992065,191.000000 
	C205.036621,188.023544 207.130264,183.993866 207.451218,180.494171 
	C208.583054,168.152588 210.070648,155.843628 211.188110,143.241394 
	C211.451294,142.382019 211.949692,141.803574 212.838531,141.287201 
	C213.484451,141.567154 213.739944,141.785019 213.995438,142.002899 
z"/>
<path fill="#BBFD8B" opacity="1.000000" stroke="none" 
	d="
M214.220840,141.759399 
	C213.739944,141.785019 213.484451,141.567154 213.086807,141.138580 
	C213.458298,140.357300 213.971939,139.786697 214.744339,139.081009 
	C214.817490,139.802582 214.631866,140.659256 214.220840,141.759399 
z"/>
<path fill="#98C8E6" opacity="1.000000" stroke="none" 
	d="
M415.002319,467.016418 
	C410.283386,468.005035 405.605957,469.327515 400.837799,469.919678 
	C386.538361,471.695496 372.207794,473.225708 357.881195,474.776367 
	C344.373383,476.238373 330.846558,477.527283 317.343811,479.032990 
	C300.882019,480.868622 284.442780,482.906128 267.982208,484.752960 
	C254.645096,486.249359 241.289963,487.584717 227.944672,489.008759 
	C223.506592,489.482361 219.074234,490.009430 214.317108,490.761414 
	C208.656250,486.828156 203.167603,482.821930 198.003723,478.433563 
	C169.758301,454.429749 142.349777,429.461456 117.111893,402.329193 
	C96.573936,380.249573 77.263229,357.023773 57.559162,334.176178 
	C52.258350,328.029694 47.476364,321.432770 42.531357,314.985016 
	C41.539879,313.692200 40.889427,312.137848 40.027596,310.353333 
	C40.282978,309.528381 40.592506,309.054230 40.932747,308.290039 
	C40.981777,306.286407 41.000095,304.572784 41.380882,302.490601 
	C54.011410,307.641632 66.271927,313.178101 78.549126,318.677277 
	C103.254471,329.743225 127.968483,340.789795 152.679764,351.842468 
	C168.598862,358.962677 184.500488,366.122864 200.476227,373.113617 
	C201.724197,373.659760 203.494720,373.011688 205.390076,372.956238 
	C209.375992,374.908600 212.904144,377.023102 216.628357,378.702881 
	C231.139145,385.247711 245.699936,391.682251 260.265533,398.104767 
	C273.155090,403.788269 286.075653,409.401337 299.207703,415.298645 
	C301.958527,416.673553 304.484253,417.795319 307.324280,419.082397 
	C343.426514,435.170654 379.214417,451.093536 415.002319,467.016418 
z"/>
<path fill="#9DD4DD" opacity="1.000000" stroke="none" 
	d="
M106.736389,93.182060 
	C111.344048,104.497910 115.863609,115.883049 119.932983,127.426895 
	C129.915894,155.746094 139.691284,184.138443 149.798370,212.763245 
	C152.973450,221.963699 155.798874,230.937073 158.850616,239.832794 
	C163.626633,253.754715 168.555634,267.624146 173.703476,282.100159 
	C174.323700,283.456512 174.660278,284.228455 175.006409,285.352234 
	C175.377502,286.803986 175.739029,287.903931 176.125748,289.371094 
	C185.067123,315.492889 193.983322,341.247406 202.583313,367.001343 
	C201.844742,367.000488 201.422363,367.000244 200.607910,366.996765 
	C198.182861,366.348175 196.064850,365.892944 194.130508,365.027283 
	C179.574539,358.512726 165.069504,351.884460 150.520279,345.354706 
	C125.668633,334.201263 100.808022,323.067657 75.927299,311.979279 
	C65.315804,307.250092 54.644264,302.655640 43.931919,297.702759 
	C43.265083,296.939026 42.666336,296.472534 42.067589,296.006073 
	C43.776958,282.703552 45.035610,269.324371 47.282494,256.113281 
	C53.365986,220.343994 62.319160,185.256500 74.584129,151.106766 
	C80.700821,134.075882 87.971901,117.459618 95.077789,100.211884 
	C95.685501,99.568100 95.884026,99.325516 96.342590,98.984879 
	C97.436447,98.606644 98.218048,98.283745 99.292824,97.834656 
	C100.725548,96.813370 101.865105,95.918259 103.004654,95.023148 
	C104.150932,94.456627 105.297203,93.890099 106.736389,93.182060 
z"/>
<path fill="#98C8E6" opacity="1.000000" stroke="none" 
	d="
M205.022385,372.918640 
	C203.494720,373.011688 201.724197,373.659760 200.476227,373.113617 
	C184.500488,366.122864 168.598862,358.962677 152.679764,351.842468 
	C127.968483,340.789795 103.254471,329.743225 78.549126,318.677277 
	C66.271927,313.178101 54.011410,307.641632 41.390282,302.062408 
	C41.201351,301.157440 41.365498,300.312042 42.073906,299.380310 
	C64.876442,309.402832 87.111305,319.563629 109.399200,329.606750 
	C134.412888,340.878113 159.452545,352.092590 184.530548,363.219971 
	C190.887161,366.040466 197.432358,368.435944 204.025787,371.268585 
	C204.447891,371.979858 204.735138,372.449249 205.022385,372.918640 
z"/>
<path fill="#9DD4DD" opacity="1.000000" stroke="none" 
	d="
M203.890900,371.026703 
	C197.432358,368.435944 190.887161,366.040466 184.530548,363.219971 
	C159.452545,352.092590 134.412888,340.878113 109.399200,329.606750 
	C87.111305,319.563629 64.876442,309.402832 42.299980,299.143738 
	C41.981789,298.993530 42.023857,298.496674 42.367195,298.248352 
	C43.140358,298.000000 43.570179,298.000000 44.000000,298.000000 
	C54.644264,302.655640 65.315804,307.250092 75.927299,311.979279 
	C100.808022,323.067657 125.668633,334.201263 150.520279,345.354706 
	C165.069504,351.884460 179.574539,358.512726 194.130508,365.027283 
	C196.064850,365.892944 198.182861,366.348175 200.693726,367.315491 
	C202.085526,368.090973 202.999405,368.544495 203.930328,369.336090 
	C203.928528,370.125000 203.909714,370.575867 203.890900,371.026703 
z"/>
<path fill="#8DA9F6" opacity="1.000000" stroke="none" 
	d="
M96.030342,99.040199 
	C95.884026,99.325516 95.685501,99.568100 95.236549,99.896683 
	C94.958969,98.165596 94.175949,95.952080 94.906242,94.499275 
	C105.175682,74.069809 115.665085,53.751034 126.056450,33.382614 
	C127.171410,31.197166 128.006897,28.869141 128.984497,26.222307 
	C130.117401,24.947958 131.237839,24.058554 132.676666,23.542850 
	C132.439865,25.436996 132.051422,27.045221 131.304184,28.464558 
	C121.881676,46.362144 112.286362,64.170105 103.020050,82.147774 
	C100.237892,87.545479 98.335678,93.396729 96.030342,99.040199 
z"/>
<path fill="#9DD4DD" opacity="1.000000" stroke="none" 
	d="
M43.931915,297.702759 
	C43.570179,298.000000 43.140358,298.000000 42.389282,298.000000 
	C42.055641,297.556702 42.043262,297.113434 42.049232,296.338104 
	C42.666336,296.472534 43.265083,296.939026 43.931915,297.702759 
z"/>
<path fill="#C0FD7B" opacity="1.000000" stroke="none" 
	d="
M381.993347,57.119102 
	C396.110809,54.206017 410.227509,51.289394 424.345917,48.380848 
	C439.280121,45.304218 454.214203,42.226845 469.155029,39.182564 
	C470.121002,38.985737 471.144226,39.069828 472.814392,39.280056 
	C475.315247,40.042431 477.142548,40.548004 479.230804,41.297840 
	C508.105804,51.012871 536.727295,60.461380 565.315491,70.009468 
	C567.039307,70.585213 568.498230,71.954399 569.604248,72.968292 
	C552.944092,72.654854 536.760864,72.178398 520.575745,72.102303 
	C516.390320,72.082626 512.198975,73.318527 507.588379,73.958939 
	C504.043396,73.626801 500.907623,72.951401 497.799561,73.061180 
	C482.399811,73.605125 467.001282,74.244003 451.614807,75.079254 
	C443.192719,75.536446 434.773010,76.251488 426.391571,77.198433 
	C410.455048,78.998962 394.515900,80.830032 378.635773,83.060730 
	C364.058929,85.108353 349.558350,87.698677 334.767975,90.030235 
	C334.341187,89.995117 334.170593,89.979660 334.085724,89.639038 
	C335.545044,88.151566 336.797821,86.794014 338.311218,85.857582 
	C351.435242,77.736847 364.637177,69.741478 377.724854,61.563068 
	C379.413818,60.507645 380.583252,58.620815 381.993347,57.119102 
z"/>
<path fill="#ACF0B8" opacity="1.000000" stroke="none" 
	d="
M478.969849,41.053574 
	C477.142548,40.548004 475.315247,40.042431 473.237915,39.293633 
	C473.137421,38.750435 473.339661,38.491673 474.212097,38.131035 
	C490.606476,34.809479 506.386292,31.645407 522.159607,28.449581 
	C557.453003,21.298805 592.743286,14.132222 628.034790,6.972078 
	C628.325195,7.095331 628.590027,7.259836 628.721924,7.933070 
	C626.284729,9.217890 624.013428,10.322309 621.616577,10.809899 
	C579.765564,19.323650 537.888611,27.710680 496.048218,36.275757 
	C490.271484,37.458302 484.658600,39.441204 478.969849,41.053574 
z"/>
<path fill="#A7E8C5" opacity="1.000000" stroke="none" 
	d="
M627.955444,6.673674 
	C592.743286,14.132222 557.453003,21.298805 522.159607,28.449581 
	C506.386292,31.645407 490.606476,34.809479 474.415344,37.990089 
	C475.628418,37.076374 477.155823,35.673428 478.897736,35.316177 
	C518.755920,27.141411 558.640442,19.095663 598.512268,10.987171 
	C607.457825,9.167966 616.373840,7.203640 625.661377,5.147443 
	C626.638245,5.450932 627.257202,5.913102 627.955444,6.673674 
z"/>
<path fill="#C0FD7B" opacity="1.000000" stroke="none" 
	d="
M381.630310,57.127075 
	C380.583252,58.620815 379.413818,60.507645 377.724854,61.563068 
	C364.637177,69.741478 351.435242,77.736847 338.311218,85.857582 
	C336.797821,86.794014 335.545044,88.151566 333.775330,89.691055 
	C332.253265,90.051048 331.127350,90.033852 330.001404,90.016647 
	C337.256470,84.885330 344.377991,79.550255 351.805939,74.682755 
	C358.583527,70.241432 365.712494,66.338425 372.633179,62.110676 
	C373.545807,61.553150 374.142181,60.477890 374.949524,59.294594 
	C377.098419,58.342857 379.182800,57.738949 381.630310,57.127075 
z"/>
<path fill="#92B8F0" opacity="1.000000" stroke="none" 
	d="
M103.060745,94.664406 
	C101.865105,95.918259 100.725548,96.813370 99.309280,97.461060 
	C99.518547,95.815407 99.842781,94.333755 100.514572,93.031380 
	C111.907921,70.943390 123.377502,48.894592 134.706100,26.773565 
	C135.574600,25.077677 135.515091,22.906542 135.886917,20.956303 
	C137.038544,20.031258 138.190186,19.106215 139.671204,18.173918 
	C140.761276,23.089518 138.534988,27.040876 136.302139,31.219952 
	C125.105324,52.176369 114.154259,73.264084 103.060745,94.664406 
z"/>
<path fill="#92B8F0" opacity="1.000000" stroke="none" 
	d="
M135.597824,21.064409 
	C135.515091,22.906542 135.574600,25.077677 134.706100,26.773565 
	C123.377502,48.894592 111.907921,70.943390 100.514572,93.031380 
	C99.842781,94.333755 99.518547,95.815407 99.016113,97.587234 
	C98.218048,98.283745 97.436447,98.606644 96.342590,98.984879 
	C98.335678,93.396729 100.237892,87.545479 103.020050,82.147774 
	C112.286362,64.170105 121.881676,46.362144 131.304184,28.464558 
	C132.051422,27.045221 132.439865,25.436996 132.999466,23.541588 
	C133.772156,22.501919 134.540451,21.837215 135.597824,21.064409 
z"/>
<path fill="#ACF0B8" opacity="1.000000" stroke="none" 
	d="
M479.230804,41.297840 
	C484.658600,39.441204 490.271484,37.458302 496.048218,36.275757 
	C537.888611,27.710680 579.765564,19.323650 621.616577,10.809899 
	C624.013428,10.322309 626.284729,9.217890 628.873352,8.112094 
	C631.824524,9.054680 634.710999,9.982370 637.179749,11.562706 
	C668.971985,31.914156 699.668335,53.824703 728.895569,77.705292 
	C743.280151,89.458450 756.984009,102.051918 770.856750,114.421280 
	C777.429321,120.281586 783.744812,126.437576 790.020508,132.618271 
	C791.623352,134.196930 792.631104,136.379807 793.977783,138.630920 
	C794.022034,141.028259 794.000793,143.079758 793.641968,145.413391 
	C751.382874,131.697464 709.470642,117.671524 667.523926,103.749062 
	C663.769226,102.502853 659.791809,101.927559 655.619263,100.857430 
	C653.704224,99.878670 652.154297,98.884941 650.461426,98.317467 
	C626.281250,90.211754 602.094238,82.126015 577.868164,74.158882 
	C575.406433,73.349297 572.682617,73.336800 570.080383,72.954407 
	C568.498230,71.954399 567.039307,70.585213 565.315491,70.009468 
	C536.727295,60.461380 508.105804,51.012871 479.230804,41.297840 
z"/>
<path fill="#B1F6A9" opacity="1.000000" stroke="none" 
	d="
M781.279419,307.799805 
	C779.543518,308.923859 778.064880,309.803558 776.009277,310.666809 
	C771.310791,303.479370 767.137024,296.337799 763.077454,289.131866 
	C750.953430,267.611053 738.900024,246.050400 726.718567,224.562317 
	C725.907532,223.131607 724.255798,222.177505 722.731445,221.000336 
	C722.291992,220.998383 722.116211,220.997833 721.817627,220.673218 
	C715.712219,209.417328 709.918579,198.376312 703.684814,187.589691 
	C699.048218,179.566772 693.841309,171.873444 689.007690,163.751724 
	C686.973694,159.085739 685.002197,154.600372 682.634521,150.334946 
	C673.854797,134.517868 664.944397,118.773293 656.469055,103.020325 
	C661.002136,104.228432 665.198059,105.270821 669.288879,106.629814 
	C708.257263,119.575371 747.201599,132.593430 786.178223,145.513962 
	C788.657104,146.335693 791.347473,146.519455 793.939453,147.000000 
	C794.626282,153.907135 795.783569,160.805939 795.906006,167.723068 
	C796.197571,184.187637 796.831360,200.714035 795.781860,217.116608 
	C794.568481,236.080704 791.934326,254.969879 789.446716,273.829529 
	C788.235657,283.011444 786.038208,292.070068 784.098938,301.144226 
	C783.624878,303.362518 782.410522,305.422607 781.279419,307.799805 
z"/>
<path fill="#B1F6A9" opacity="1.000000" stroke="none" 
	d="
M793.952637,146.752380 
	C791.347473,146.519455 788.657104,146.335693 786.178223,145.513962 
	C747.201599,132.593430 708.257263,119.575371 669.288879,106.629814 
	C665.198059,105.270821 661.002136,104.228432 656.437988,102.693573 
	C655.986633,101.912216 655.952271,101.476448 655.917847,101.040680 
	C659.791809,101.927559 663.769226,102.502853 667.523926,103.749062 
	C709.470642,117.671524 751.382874,131.697464 793.631592,145.852219 
	C793.958801,146.008896 793.965820,146.504776 793.952637,146.752380 
z"/>
<path fill="#ACF0B8" opacity="1.000000" stroke="none" 
	d="
M415.398743,467.086853 
	C379.214417,451.093536 343.426514,435.170654 307.436096,418.752686 
	C308.090973,417.983673 308.976959,417.404327 309.801331,417.481598 
	C321.822723,418.609161 333.833496,419.849701 345.851807,421.011139 
	C356.223328,422.013458 366.591248,423.097900 376.984161,423.799164 
	C379.271637,423.953522 381.657928,422.643951 384.255249,422.000244 
	C384.682831,421.986023 384.853851,421.980042 385.466797,421.982361 
	C406.265228,422.993774 426.620819,424.793365 446.978394,424.815674 
	C478.514496,424.850281 510.054901,423.785370 541.587463,422.956879 
	C555.665833,422.586945 569.736389,421.771851 583.796570,420.926727 
	C589.210083,420.601379 594.584839,419.631317 600.355225,418.968689 
	C601.488770,418.977814 602.244385,418.973236 603.250122,418.982483 
	C603.666809,419.008057 603.833435,419.019775 603.911011,419.361328 
	C596.705017,423.463776 589.712158,427.497101 582.445007,430.953857 
	C568.097778,437.778351 553.573364,444.230225 539.211792,451.025208 
	C538.102783,451.549896 537.696411,453.559479 536.963440,454.878845 
	C522.847290,456.540222 508.741333,458.295197 494.612030,459.836212 
	C480.804657,461.342102 466.964600,462.547577 453.155670,464.040131 
	C442.808716,465.158508 432.496368,466.597076 422.149445,467.715820 
	C420.075714,467.940063 417.915497,467.364166 415.398743,467.086853 
z"/>
<path fill="#A7E8C5" opacity="1.000000" stroke="none" 
	d="
M613.001892,418.065308 
	C609.590576,420.748108 606.521057,424.128906 602.709717,425.994598 
	C584.785767,434.768799 566.655518,443.121460 548.611511,451.651184 
	C547.750244,452.058350 547.008911,452.719299 546.111328,453.582214 
	C543.611145,454.241302 541.211365,454.580261 538.599731,454.631134 
	C540.527649,453.105347 542.589172,451.700775 544.819336,450.656128 
	C563.738708,441.793823 582.718628,433.059906 601.592590,424.102448 
	C603.994751,422.962433 605.891174,420.756714 608.385986,419.018127 
	C610.167419,418.682800 611.584656,418.374054 613.001892,418.065308 
z"/>
<path fill="#ACF0B8" opacity="1.000000" stroke="none" 
	d="
M608.021851,419.044708 
	C605.891174,420.756714 603.994751,422.962433 601.592590,424.102448 
	C582.718628,433.059906 563.738708,441.793823 544.819336,450.656128 
	C542.589172,451.700775 540.527649,453.105347 538.199219,454.618042 
	C537.835999,454.903809 537.661438,454.914612 537.225098,454.902100 
	C537.696411,453.559479 538.102783,451.549896 539.211792,451.025208 
	C553.573364,444.230225 568.097778,437.778351 582.445007,430.953857 
	C589.712158,427.497101 596.705017,423.463776 604.312744,419.351257 
	C605.876343,419.022491 606.949097,419.033600 608.021851,419.044708 
z"/>
<path fill="#B6FA9A" opacity="1.000000" stroke="none" 
	d="
M608.385986,419.018127 
	C606.949097,419.033600 605.876343,419.022491 604.401794,419.021423 
	C603.833435,419.019775 603.666809,419.008057 603.265442,418.619629 
	C603.459229,417.187042 603.747620,416.044800 604.336914,415.087921 
	C619.799255,389.981903 635.312256,364.907104 650.726562,339.771790 
	C651.551208,338.427185 651.590332,336.600830 651.996338,334.750305 
	C651.997559,334.501831 651.997559,334.004883 651.998352,333.782990 
	C651.999146,333.561096 652.000000,333.117340 652.261353,332.895081 
	C662.975647,315.786011 673.428589,298.899200 684.035461,281.729736 
	C684.471252,280.651306 684.753174,279.855499 685.322388,278.878754 
	C688.585938,274.108459 691.623108,269.557220 694.527283,264.922699 
	C703.691772,250.297684 712.806519,235.641434 721.940491,220.997284 
	C722.116211,220.997833 722.291992,220.998383 722.790283,221.354187 
	C723.880798,223.359802 724.545593,225.067932 725.432129,226.651917 
	C738.950378,250.803345 752.467468,274.955597 766.065491,299.062134 
	C768.563477,303.490692 771.417358,307.718475 774.106934,312.038971 
	C764.971069,319.415375 756.260071,327.408417 746.618835,334.051300 
	C718.895691,353.152618 691.087769,372.163696 662.730408,390.298981 
	C646.962097,400.383270 630.031311,408.649963 613.313171,417.900574 
	C611.584656,418.374054 610.167419,418.682800 608.385986,419.018127 
z"/>
<path fill="#B1F6A9" opacity="1.000000" stroke="none" 
	d="
M774.381470,311.988281 
	C771.417358,307.718475 768.563477,303.490692 766.065491,299.062134 
	C752.467468,274.955597 738.950378,250.803345 725.432129,226.651917 
	C724.545593,225.067932 723.880798,223.359802 723.053955,221.355560 
	C724.255798,222.177505 725.907532,223.131607 726.718567,224.562317 
	C738.900024,246.050400 750.953430,267.611053 763.077454,289.131866 
	C767.137024,296.337799 771.310791,303.479370 775.724243,310.830994 
	C775.562622,311.320312 775.109314,311.628937 774.381470,311.988281 
z"/>
<path fill="#C5FC6C" opacity="1.000000" stroke="none" 
	d="
M212.017883,188.007080 
	C212.832397,187.431549 213.646912,186.856033 214.975220,186.356506 
	C227.637100,201.737106 239.725876,217.089325 251.958893,232.325745 
	C257.850159,239.663452 264.013367,246.782822 270.174133,254.318115 
	C274.198486,259.760651 277.984100,264.981567 282.032715,269.989868 
	C288.570068,278.076935 295.280487,286.024078 302.001617,294.349335 
	C303.445312,296.098663 304.805267,297.528961 306.169006,299.306213 
	C311.798706,306.952728 317.439880,314.240540 323.045685,321.555481 
	C327.740417,327.681549 332.393768,333.839294 336.647583,339.982635 
	C317.436798,335.806091 298.643280,331.632355 279.851044,327.453156 
	C261.220032,323.309814 242.590256,319.160919 223.959946,315.014496 
	C220.646713,300.813263 216.951126,286.688171 214.103363,272.394196 
	C208.879700,246.174713 208.482178,219.582886 209.288086,192.324646 
	C210.381989,190.461227 211.199936,189.234146 212.017883,188.007080 
z"/>
<path fill="#C5FC6C" opacity="1.000000" stroke="none" 
	d="
M223.981705,315.361359 
	C242.590256,319.160919 261.220032,323.309814 279.851044,327.453156 
	C298.643280,331.632355 317.436798,335.806091 336.929962,340.147461 
	C338.717072,341.883881 339.803955,343.455048 340.487061,345.014832 
	C301.736786,336.329437 263.390228,327.655365 225.043686,318.981262 
	C224.696945,317.890259 224.350204,316.799225 223.981705,315.361359 
z"/>
<path fill="#C0FD7B" opacity="1.000000" stroke="none" 
	d="
M225.031860,319.316864 
	C263.390228,327.655365 301.736786,336.329437 340.533936,345.239349 
	C340.984497,345.475189 341.050476,345.929047 340.757904,346.177124 
	C339.018677,346.462891 337.503723,346.802887 336.135498,346.493652 
	C308.656921,340.283356 281.205688,333.951904 253.724274,327.754272 
	C244.528381,325.680389 235.264175,323.909424 225.896759,321.800171 
	C225.554855,321.349548 225.307373,321.147827 225.019882,320.995148 
	C225.019943,320.547577 225.020004,320.100037 225.031860,319.316864 
z"/>
<path fill="#B6FA9A" opacity="1.000000" stroke="none" 
	d="
M224.654266,320.982544 
	C225.307373,321.147827 225.554855,321.349548 225.845963,322.086090 
	C225.624527,323.047455 225.319458,323.523132 224.663788,323.944153 
	C223.260284,323.411591 222.051392,323.127716 221.178558,322.425873 
	C211.889542,314.956635 202.657074,307.417053 193.402328,299.905121 
	C187.272858,294.929901 181.132401,289.968170 174.996857,285.000427 
	C174.660278,284.228455 174.323700,283.456512 173.953156,282.356842 
	C178.379456,285.286224 182.981598,288.367615 187.272552,291.834259 
	C198.764130,301.118256 210.111404,310.580719 221.559631,319.918823 
	C222.277496,320.504364 223.370300,320.630249 224.654266,320.982544 
z"/>
<path fill="#BBFD8B" opacity="1.000000" stroke="none" 
	d="
M211.641342,188.004883 
	C211.199936,189.234146 210.381989,190.461227 209.294968,191.857742 
	C209.019424,191.856018 209.012970,191.684845 208.999298,191.256836 
	C208.995590,190.250000 208.999100,189.500000 209.005280,188.375000 
	C209.760223,188.000900 210.512512,188.001801 211.641342,188.004883 
z"/>
<path fill="#CBF85A" opacity="1.000000" stroke="none" 
	d="
M270.053436,254.001053 
	C264.013367,246.782822 257.850159,239.663452 251.958893,232.325745 
	C239.725876,217.089325 227.637100,201.737106 215.239075,186.214081 
	C227.269638,173.877380 239.099106,161.254395 251.947800,149.771912 
	C267.117157,136.215530 283.026917,123.469948 298.896606,110.722580 
	C306.637085,104.505051 314.974274,99.022514 323.135651,93.342781 
	C325.007263,92.040253 327.267090,91.295502 329.674835,90.155350 
	C331.127350,90.033852 332.253265,90.051048 333.689606,90.016220 
	C334.170593,89.979660 334.341187,89.995117 334.758057,90.424255 
	C333.655029,94.923386 332.489929,99.080864 330.925262,103.082092 
	C323.356049,122.437881 315.679413,141.751694 307.875549,161.391785 
	C306.115967,165.527237 304.439667,169.319458 302.943756,173.181580 
	C299.238007,182.748993 295.614777,192.348358 291.703491,202.218018 
	C291.242096,204.021713 291.035553,205.542282 290.823669,207.224152 
	C290.818298,207.385468 290.824371,207.708206 290.478943,207.807678 
	C287.447662,213.682114 284.629242,219.399841 282.106079,225.245026 
	C277.987274,234.786667 274.060974,244.411392 270.053436,254.001053 
z"/>
<path fill="#BBFD8B" opacity="1.000000" stroke="none" 
	d="
M213.320404,147.922897 
	C213.305161,146.893341 213.602646,145.787521 213.954041,144.341278 
	C217.298874,145.615677 214.982437,146.684036 213.320404,147.922897 
z"/>
<path fill="#BBFD8B" opacity="1.000000" stroke="none" 
	d="
M212.320404,153.922897 
	C212.305176,152.893341 212.602661,151.787537 212.954041,150.341278 
	C216.298874,151.615677 213.982437,152.684036 212.320404,153.922897 
z"/>
<path fill="#BBFD8B" opacity="1.000000" stroke="none" 
	d="
M210.320404,169.922897 
	C210.305161,168.893341 210.602646,167.787521 210.954041,166.341278 
	C214.298874,167.615677 211.982437,168.684036 210.320404,169.922897 
z"/>
<path fill="#BBFD8B" opacity="1.000000" stroke="none" 
	d="
M209.320404,181.922897 
	C209.305176,180.893341 209.602661,179.787537 209.954041,178.341278 
	C213.298874,179.615677 210.982437,180.684036 209.320404,181.922897 
z"/>
<path fill="#BBFD8B" opacity="1.000000" stroke="none" 
	d="
M211.320404,161.922897 
	C211.305161,160.893341 211.602646,159.787521 211.954041,158.341278 
	C215.298874,159.615677 212.982437,160.684036 211.320404,161.922897 
z"/>
<path fill="#B1F6A9" opacity="1.000000" stroke="none" 
	d="
M385.024872,421.974091 
	C384.853851,421.980042 384.682831,421.986023 383.806519,421.997498 
	C377.157501,421.647675 371.192352,421.502594 365.273926,420.899292 
	C344.075928,418.738525 322.895172,416.408783 301.700500,414.214111 
	C300.832520,414.124237 299.890228,414.752045 298.982544,415.045471 
	C286.075653,409.401337 273.155090,403.788269 260.265533,398.104767 
	C245.699936,391.682251 231.139145,385.247711 216.628357,378.702881 
	C212.904144,377.023102 209.375992,374.908600 205.390076,372.956238 
	C204.735138,372.449249 204.447891,371.979858 204.025787,371.268585 
	C203.909714,370.575867 203.928528,370.125000 203.842987,369.070129 
	C203.458923,367.978058 203.179230,367.489990 202.899536,367.001953 
	C193.983322,341.247406 185.067123,315.492889 176.455811,289.434387 
	C177.208862,289.339874 177.726730,289.465240 178.095062,289.770844 
	C190.316895,299.911774 202.402328,310.222839 214.810410,320.129913 
	C218.414185,323.007294 222.935272,324.735779 227.324158,327.158264 
	C242.578629,337.808319 257.167725,348.888458 272.601318,358.630737 
	C294.515503,372.463745 316.864441,385.640594 339.396179,398.449524 
	C351.522736,405.343262 364.417908,410.884949 377.199768,417.280334 
	C379.963776,419.007355 382.494324,420.490723 385.024872,421.974091 
z"/>
<path fill="#ACF0B8" opacity="1.000000" stroke="none" 
	d="
M299.207703,415.298645 
	C299.890228,414.752045 300.832520,414.124237 301.700500,414.214111 
	C322.895172,416.408783 344.075928,418.738525 365.273926,420.899292 
	C371.192352,421.502594 377.157501,421.647675 383.549957,422.005737 
	C381.657928,422.643951 379.271637,423.953522 376.984161,423.799164 
	C366.591248,423.097900 356.223328,422.013458 345.851807,421.011139 
	C333.833496,419.849701 321.822723,418.609161 309.801331,417.481598 
	C308.976959,417.404327 308.090973,417.983673 307.121765,418.587341 
	C304.484253,417.795319 301.958527,416.673553 299.207703,415.298645 
z"/>
<path fill="#B1F6A9" opacity="1.000000" stroke="none" 
	d="
M227.035858,326.990936 
	C222.935272,324.735779 218.414185,323.007294 214.810410,320.129913 
	C202.402328,310.222839 190.316895,299.911774 178.095062,289.770844 
	C177.726730,289.465240 177.208862,289.339874 176.430634,289.067139 
	C175.739029,287.903931 175.377502,286.803986 175.006409,285.352234 
	C181.132401,289.968170 187.272858,294.929901 193.402328,299.905121 
	C202.657074,307.417053 211.889542,314.956635 221.178558,322.425873 
	C222.051392,323.127716 223.260284,323.411591 224.797607,324.214294 
	C225.866638,325.356354 226.451248,326.173645 227.035858,326.990936 
z"/>
<path fill="#9DD4DD" opacity="1.000000" stroke="none" 
	d="
M202.583313,367.001343 
	C203.179230,367.489990 203.458923,367.978058 203.825943,368.732056 
	C202.999405,368.544495 202.085526,368.090973 201.085815,367.318726 
	C201.422363,367.000244 201.844742,367.000488 202.583313,367.001343 
z"/>
<path fill="#D0F34B" opacity="1.000000" stroke="none" 
	d="
M308.040894,161.080383 
	C315.679413,141.751694 323.356049,122.437881 330.925262,103.082092 
	C332.489929,99.080864 333.655029,94.923386 335.014221,90.443909 
	C349.558350,87.698677 364.058929,85.108353 378.635773,83.060730 
	C394.515900,80.830032 410.455048,78.998962 426.391571,77.198433 
	C434.773010,76.251488 443.192719,75.536446 451.614807,75.079254 
	C467.001282,74.244003 482.399811,73.605125 497.799561,73.061180 
	C500.907623,72.951401 504.043396,73.626801 507.588226,74.209267 
	C508.012115,74.645065 508.014160,74.811798 507.776917,75.235870 
	C496.088470,80.361649 484.660889,85.281601 473.184662,90.085381 
	C458.942261,96.047073 444.616760,101.813309 430.440491,107.926697 
	C428.311371,108.844864 426.798828,111.192833 424.623199,112.924370 
	C407.163177,120.017044 390.081055,127.064735 372.716217,134.210205 
	C371.629700,134.908951 370.825836,135.509933 369.642578,136.094254 
	C367.860107,136.542480 366.421875,136.922348 365.059143,137.485031 
	C346.047028,145.335510 327.045197,153.210983 308.040894,161.080383 
z"/>
<path fill="#C5FC6C" opacity="1.000000" stroke="none" 
	d="
M508.016174,74.978523 
	C508.014160,74.811798 508.012115,74.645065 508.010193,74.228012 
	C512.198975,73.318527 516.390320,72.082626 520.575745,72.102303 
	C536.760864,72.178398 552.944092,72.654854 569.604248,72.968292 
	C572.682617,73.336800 575.406433,73.349297 577.868164,74.158882 
	C602.094238,82.126015 626.281250,90.211754 650.461426,98.317467 
	C652.154297,98.884941 653.704224,99.878670 655.619263,100.857437 
	C655.952271,101.476448 655.986633,101.912216 656.052063,102.674728 
	C664.944397,118.773293 673.854797,134.517868 682.634521,150.334946 
	C685.002197,154.600372 686.973694,159.085739 688.652832,163.725433 
	C683.256836,160.965988 678.378967,157.876724 673.403870,154.952759 
	C664.286011,149.594040 655.110840,144.332825 645.673340,138.858002 
	C643.851074,137.428116 642.466003,135.895721 640.754944,134.958252 
	C627.953125,127.944565 615.334412,120.530869 602.181458,114.239449 
	C583.487732,105.297745 564.494202,96.954353 545.418152,88.851013 
	C534.156311,84.067085 522.488037,80.239838 510.767761,75.756531 
	C509.694031,75.346649 508.855103,75.162582 508.016174,74.978523 
z"/>
<path fill="#CBF85A" opacity="1.000000" stroke="none" 
	d="
M645.959595,139.030975 
	C655.110840,144.332825 664.286011,149.594040 673.403870,154.952759 
	C678.378967,157.876724 683.256836,160.965988 688.533508,164.007019 
	C693.841309,171.873444 699.048218,179.566772 703.684814,187.589691 
	C709.918579,198.376312 715.712219,209.417328 721.817627,220.673218 
	C712.806519,235.641434 703.691772,250.297684 694.527283,264.922699 
	C691.623108,269.557220 688.585938,274.108459 685.152466,278.494385 
	C684.463501,274.194000 684.231750,270.096985 684.207581,265.776947 
	C683.943420,264.702606 683.471741,263.851288 683.000000,262.562500 
	C683.000000,260.083344 683.000000,258.041656 683.207642,255.776947 
	C682.943481,254.702591 682.471741,253.851303 682.000000,252.600006 
	C682.000000,251.133347 682.000000,250.066666 682.207642,248.776947 
	C681.943481,247.702591 681.471741,246.851303 681.000000,245.666687 
	C681.000000,244.888901 681.000000,244.444443 681.189026,243.784180 
	C680.607788,242.714005 679.837524,241.859650 678.986511,240.610596 
	C675.160645,219.778214 670.391724,199.586823 662.825134,180.204010 
	C658.309448,168.636566 652.995667,157.380722 647.989380,145.700745 
	C647.638733,144.941513 647.339355,144.466354 646.916748,143.738464 
	C646.513306,142.998154 646.233276,142.510590 645.964172,141.648773 
	C645.969910,140.526672 645.964783,139.778824 645.959595,139.030975 
z"/>
<path fill="#BBFD8B" opacity="1.000000" stroke="none" 
	d="
M385.466797,421.982361 
	C382.494324,420.490723 379.963776,419.007355 377.539612,417.120270 
	C413.532776,405.793671 449.428223,394.899139 485.288910,383.891327 
	C487.997986,383.059784 490.459656,381.422302 493.391846,380.169037 
	C495.811432,379.960815 497.963745,380.045959 499.924927,379.474854 
	C510.694580,376.338776 521.447083,373.136322 532.148132,369.774231 
	C543.143127,366.319824 554.072205,362.655609 565.368591,359.016785 
	C566.797424,358.595978 567.887817,358.241638 569.374512,357.902740 
	C581.528870,354.439423 593.281311,350.942108 605.046082,347.486786 
	C619.354858,343.284271 633.674072,339.117126 647.937622,335.293396 
	C647.224060,336.981384 646.659790,338.371063 645.884521,339.631012 
	C630.915649,363.959229 615.903442,388.260803 600.988770,412.622192 
	C600.249084,413.830292 600.314209,415.531097 600.002197,417.328186 
	C599.992371,418.087585 599.984802,418.521301 599.977295,418.954987 
	C594.584839,419.631317 589.210083,420.601379 583.796570,420.926727 
	C569.736389,421.771851 555.665833,422.586945 541.587463,422.956879 
	C510.054901,423.785370 478.514496,424.850281 446.978394,424.815674 
	C426.620819,424.793365 406.265228,422.993774 385.466797,421.982361 
z"/>
<path fill="#B6FA9A" opacity="1.000000" stroke="none" 
	d="
M600.355225,418.968689 
	C599.984802,418.521301 599.992371,418.087585 600.250366,417.104919 
	C613.492615,395.719086 626.448669,374.859894 639.497253,354.058746 
	C643.533630,347.624176 647.822083,341.347656 651.995117,334.998749 
	C651.590332,336.600830 651.551208,338.427185 650.726562,339.771790 
	C635.312256,364.907104 619.799255,389.981903 604.336914,415.087921 
	C603.747620,416.044800 603.459229,417.187042 603.015320,418.605774 
	C602.244385,418.973236 601.488770,418.977814 600.355225,418.968689 
z"/>
<path fill="#D0F34B" opacity="1.000000" stroke="none" 
	d="
M647.988770,334.934662 
	C633.674072,339.117126 619.354858,343.284271 605.046082,347.486786 
	C593.281311,350.942108 581.528870,354.439423 569.446045,357.574799 
	C571.755310,354.816254 574.340637,352.345001 577.033142,349.996704 
	C584.330627,343.632141 591.673523,337.319763 599.295166,330.831390 
	C604.275452,326.736420 609.362366,323.182617 613.568787,318.786346 
	C627.428650,304.301147 641.309143,289.807526 654.494629,274.716797 
	C661.410156,266.801971 666.892944,257.635315 673.274475,248.890076 
	C674.022034,248.165695 674.517822,247.585205 675.246582,246.808060 
	C676.307312,245.729477 677.135071,244.847549 678.107910,244.222427 
	C678.833801,244.986603 679.414429,245.494003 679.996582,246.376221 
	C680.001221,247.500702 680.004456,248.250351 680.006836,249.359253 
	C680.335754,250.812683 680.665405,251.906830 680.996582,253.375854 
	C681.001221,254.500488 681.004456,255.250244 681.005859,256.414734 
	C681.334351,258.887146 681.664734,260.944794 681.996582,263.377106 
	C682.001221,264.501190 682.004456,265.250580 682.005737,266.466614 
	C682.002625,270.087341 681.780396,273.262817 682.081909,276.387756 
	C682.266602,278.302704 683.254333,280.140167 683.881531,282.012421 
	C673.428589,298.899200 662.975647,315.786011 652.037231,332.971191 
	C651.280151,333.449921 651.077942,333.688995 650.620239,333.997650 
	C649.526428,334.317200 648.757568,334.625916 647.988770,334.934662 
z"/>
<path fill="#BBFD8B" opacity="1.000000" stroke="none" 
	d="
M647.937622,335.293335 
	C648.757568,334.625916 649.526428,334.317200 650.883545,334.002411 
	C651.646973,333.999176 651.822266,334.002045 651.997559,334.004883 
	C651.997559,334.004883 651.997559,334.501831 651.996338,334.750305 
	C647.822083,341.347656 643.533630,347.624176 639.497253,354.058746 
	C626.448669,374.859894 613.492615,395.719086 600.252747,416.779205 
	C600.314209,415.531097 600.249084,413.830292 600.988770,412.622192 
	C615.903442,388.260803 630.915649,363.959229 645.884521,339.631012 
	C646.659790,338.371063 647.224060,336.981384 647.937622,335.293335 
z"/>
<path fill="#CBF85A" opacity="1.000000" stroke="none" 
	d="
M684.035461,281.729736 
	C683.254333,280.140167 682.266602,278.302704 682.081909,276.387756 
	C681.780396,273.262817 682.002625,270.087341 682.337769,266.466614 
	C683.114441,266.000000 683.557190,266.000000 684.000000,266.000000 
	C684.231750,270.096985 684.463501,274.194000 684.865234,278.675354 
	C684.753174,279.855499 684.471252,280.651306 684.035461,281.729736 
z"/>
<path fill="#B6FA9A" opacity="1.000000" stroke="none" 
	d="
M651.998352,333.782990 
	C651.822266,334.002045 651.646973,333.999176 651.208435,333.991577 
	C651.077942,333.688995 651.280151,333.449921 651.775879,333.193451 
	C652.000000,333.117340 651.999146,333.561096 651.998352,333.782990 
z"/>
<path fill="#DAE330" opacity="1.000000" stroke="none" 
	d="
M341.050476,345.929047 
	C341.050476,345.929047 340.984497,345.475189 340.937653,345.250671 
	C339.803955,343.455048 338.717072,341.883881 337.347839,340.147888 
	C332.393768,333.839294 327.740417,327.681549 323.045685,321.555481 
	C317.439880,314.240540 311.798706,306.952728 306.557861,299.318176 
	C308.691650,299.354797 310.585144,299.416779 312.163025,300.154144 
	C317.683075,302.733582 323.005432,305.747345 328.575348,308.205261 
	C332.886230,310.107544 337.455231,311.424988 342.106323,313.289673 
	C345.333557,315.261139 348.203125,317.385651 351.419678,318.559784 
	C376.811432,327.828613 402.176819,337.186951 427.752747,345.925262 
	C437.902863,349.393219 448.565186,351.362122 459.232849,354.237122 
	C460.647156,354.969269 461.822906,355.477722 462.680634,356.234283 
	C448.740356,357.654999 435.112518,358.769348 421.502258,360.067657 
	C419.623199,360.246887 417.831024,361.337097 415.584412,361.988159 
	C400.803558,358.822357 386.442108,355.650146 372.068604,352.533600 
	C361.737579,350.293579 351.390442,348.127899 341.050476,345.929047 
z"/>
<path fill="#DFD825" opacity="1.000000" stroke="none" 
	d="
M270.174133,254.318115 
	C274.060974,244.411392 277.987274,234.786667 282.106079,225.245026 
	C284.629242,219.399841 287.447662,213.682114 290.535583,208.246216 
	C292.922913,216.100372 294.751892,223.663162 297.020325,231.091797 
	C297.495605,232.648163 299.589630,233.710220 301.013245,235.366394 
	C308.792053,252.077637 316.139832,268.603699 324.339905,284.695465 
	C328.829529,293.505859 334.759125,301.582520 339.656860,309.976685 
	C329.183167,305.308929 319.119934,300.592285 308.979004,296.049011 
	C306.767670,295.058258 304.278870,294.686920 301.917847,294.030304 
	C295.280487,286.024078 288.570068,278.076935 282.032715,269.989868 
	C277.984100,264.981567 274.198486,259.760651 270.174133,254.318115 
z"/>
<path fill="#DFD825" opacity="1.000000" stroke="none" 
	d="
M302.001617,294.349335 
	C304.278870,294.686920 306.767670,295.058258 308.979004,296.049011 
	C319.119934,300.592285 329.183167,305.308929 339.925964,310.138947 
	C341.077881,311.201019 341.578125,312.087494 342.036316,312.981995 
	C341.994232,312.990051 341.909454,313.002411 341.909454,313.002411 
	C337.455231,311.424988 332.886230,310.107544 328.575348,308.205261 
	C323.005432,305.747345 317.683075,302.733582 312.163025,300.154144 
	C310.585144,299.416779 308.691650,299.354797 306.554047,298.971191 
	C304.805267,297.528961 303.445312,296.098663 302.001617,294.349335 
z"/>
<path fill="#C0FD7B" opacity="1.000000" stroke="none" 
	d="
M340.757904,346.177124 
	C351.390442,348.127899 361.737579,350.293579 372.068604,352.533600 
	C386.442108,355.650146 400.803558,358.822357 415.853943,362.248871 
	C420.081116,363.359955 423.621124,364.207642 427.168488,365.023468 
	C449.123535,370.072784 471.080200,375.114929 493.036346,380.159454 
	C490.459656,381.422302 487.997986,383.059784 485.288910,383.891327 
	C449.428223,394.899139 413.532776,405.793671 377.306152,416.876587 
	C364.417908,410.884949 351.522736,405.343262 339.396179,398.449524 
	C316.864441,385.640594 294.515503,372.463745 272.601318,358.630737 
	C257.167725,348.888458 242.578629,337.808319 227.324158,327.158264 
	C226.451248,326.173645 225.866638,325.356354 225.148209,324.268921 
	C225.319458,323.523132 225.624527,323.047455 225.980392,322.285889 
	C235.264175,323.909424 244.528381,325.680389 253.724274,327.754272 
	C281.205688,333.951904 308.656921,340.283356 336.135498,346.493652 
	C337.503723,346.802887 339.018677,346.462891 340.757904,346.177124 
z"/>
<path fill="#E4CD1A" opacity="1.000000" stroke="none" 
	d="
M307.875549,161.391785 
	C327.045197,153.210983 346.047028,145.335510 365.059143,137.485031 
	C366.421875,136.922348 367.860107,136.542480 369.572571,136.420715 
	C366.880432,140.050110 363.788177,143.258926 360.899994,146.641968 
	C357.173798,151.006561 353.610901,155.510544 349.641479,160.025726 
	C348.746155,160.433640 348.008820,160.640106 347.653992,161.125961 
	C337.904144,174.475479 327.674225,187.515289 318.661743,201.347778 
	C312.834625,210.291321 308.798859,220.402023 303.750427,230.185242 
	C303.370392,230.921661 303.200317,231.462540 302.774567,232.005829 
	C302.348541,232.012375 302.178131,232.016495 301.854980,231.681351 
	C301.115784,229.456024 300.562958,227.558746 299.936951,225.685928 
	C297.289276,217.764923 294.619843,209.851242 291.958344,201.934875 
	C295.614777,192.348358 299.238007,182.748993 302.943756,173.181580 
	C304.439667,169.319458 306.115967,165.527237 307.875549,161.391785 
z"/>
<path fill="#E4CD1A" opacity="1.000000" stroke="none" 
	d="
M291.703491,202.218018 
	C294.619843,209.851242 297.289276,217.764923 299.936951,225.685928 
	C300.562958,227.558746 301.115784,229.456024 301.849060,231.923035 
	C301.995880,232.503983 301.980621,232.987701 301.739136,232.991425 
	C301.497681,232.995148 301.014709,233.002029 300.712402,232.809906 
	C298.217285,225.794983 296.109497,218.942856 293.775208,212.168808 
	C293.146698,210.345001 291.829895,208.758362 290.829041,207.062851 
	C291.035553,205.542282 291.242096,204.021713 291.703491,202.218018 
z"/>
<path fill="#DFD825" opacity="1.000000" stroke="none" 
	d="
M290.823669,207.224152 
	C291.829895,208.758362 293.146698,210.345001 293.775208,212.168808 
	C296.109497,218.942856 298.217285,225.794983 300.704376,233.143066 
	C300.978363,234.112259 300.958038,234.556152 300.937714,235.000061 
	C299.589630,233.710220 297.495605,232.648163 297.020325,231.091797 
	C294.751892,223.663162 292.922913,216.100372 290.881012,208.146744 
	C290.824371,207.708206 290.818298,207.385468 290.823669,207.224152 
z"/>
<path fill="#E9C012" opacity="1.000000" stroke="none" 
	d="
M372.998901,134.112427 
	C390.081055,127.064735 407.163177,120.017044 424.953156,112.967148 
	C426.103607,112.992516 426.546234,113.020088 427.248505,113.287186 
	C428.675262,113.654221 429.842377,113.781731 431.423401,113.952141 
	C433.123383,114.299011 434.394257,114.722534 435.697937,114.888748 
	C451.887207,116.952927 468.085602,118.946350 484.265778,121.078484 
	C485.578705,121.251488 486.775208,122.308357 487.723145,123.204605 
	C480.561218,124.664871 473.659210,125.678711 466.858826,127.159401 
	C462.826141,128.037460 458.953735,129.651886 454.631744,130.894745 
	C452.645111,130.796661 450.971008,130.418060 449.436493,130.728775 
	C417.519440,137.191544 386.418274,146.462921 355.742249,158.151733 
	C354.990570,158.478409 354.495728,158.710342 354.015320,158.583771 
	C355.057373,156.612717 355.859619,154.785416 357.153931,153.426941 
	C361.460327,148.907120 366.088562,144.687149 370.277313,140.065750 
	C371.673920,138.524887 372.118866,136.121490 372.998901,134.112427 
z"/>
<path fill="#D0F34B" opacity="1.000000" stroke="none" 
	d="
M426.988861,113.047668 
	C426.546234,113.020088 426.103607,112.992516 425.331024,112.922173 
	C426.798828,111.192833 428.311371,108.844864 430.440491,107.926697 
	C444.616760,101.813309 458.942261,96.047073 473.184662,90.085381 
	C484.660889,85.281601 496.088470,80.361649 507.776917,75.235870 
	C508.855103,75.162582 509.694031,75.346649 510.766602,76.009628 
	C510.999512,76.657181 510.998840,76.825798 510.632874,77.056381 
	C508.700928,77.658829 507.100189,78.117264 505.572723,78.752037 
	C481.856415,88.607994 458.131592,98.444130 434.465515,108.419571 
	C431.797150,109.544312 429.472778,111.485229 426.988861,113.047668 
z"/>
<path fill="#E9C012" opacity="1.000000" stroke="none" 
	d="
M372.716217,134.210205 
	C372.118866,136.121490 371.673920,138.524887 370.277313,140.065750 
	C366.088562,144.687149 361.460327,148.907120 357.153931,153.426941 
	C355.859619,154.785416 355.057373,156.612717 353.730988,158.644165 
	C352.963196,159.379013 352.494141,159.694931 351.683899,160.005768 
	C350.887695,159.985291 350.432678,159.969894 349.977692,159.954498 
	C353.610901,155.510544 357.173798,151.006561 360.899994,146.641968 
	C363.788177,143.258926 366.880432,140.050110 369.951965,136.437378 
	C370.825836,135.509933 371.629700,134.908951 372.716217,134.210205 
z"/>
<path fill="#D5EB3D" opacity="1.000000" stroke="none" 
	d="
M510.998108,76.994400 
	C510.998840,76.825798 510.999512,76.657181 511.001373,76.235451 
	C522.488037,80.239838 534.156311,84.067085 545.418152,88.851013 
	C564.494202,96.954353 583.487732,105.297745 602.181458,114.239449 
	C615.334412,120.530869 627.953125,127.944565 640.754944,134.958252 
	C642.466003,135.895721 643.851074,137.428116 645.673340,138.858002 
	C645.964783,139.778824 645.969910,140.526672 645.516357,141.641357 
	C643.060059,141.980225 641.034973,142.157516 639.069336,141.893021 
	C615.252869,138.688431 591.452759,135.360809 567.629089,132.211548 
	C562.457031,131.527832 557.208374,131.423111 551.643433,130.883728 
	C547.247375,129.994705 543.227722,129.057846 539.154175,128.590271 
	C522.120178,126.634979 505.070038,124.820549 488.025787,122.954514 
	C486.775208,122.308357 485.578705,121.251488 484.265778,121.078484 
	C468.085602,118.946350 451.887207,116.952927 435.697937,114.888748 
	C434.394257,114.722534 433.123383,114.299011 431.515991,113.626877 
	C436.970123,110.503525 442.652893,107.530083 448.537872,105.033096 
	C468.232391,96.676743 488.012085,88.521149 507.709198,80.170792 
	C509.018951,79.615524 509.911499,78.076065 510.998108,76.994400 
z"/>
<path fill="#DAE330" opacity="1.000000" stroke="none" 
	d="
M677.962769,243.965637 
	C677.135071,244.847549 676.307312,245.729477 674.955811,246.644073 
	C660.601257,233.597794 646.833069,220.451569 632.897766,207.484894 
	C629.195312,204.039810 624.979797,201.146072 620.961975,197.655304 
	C610.409851,187.490845 599.895569,177.670319 589.162842,167.614014 
	C587.990051,166.572449 587.035706,165.766663 586.009216,164.622986 
	C584.416992,162.592804 582.996094,160.797348 581.360352,159.225372 
	C572.584229,150.791077 563.754639,142.412460 555.297363,133.861115 
	C557.434143,133.471756 559.217041,133.235870 561.050354,133.263428 
	C561.733826,133.684586 562.366882,133.842300 563.416626,134.000000 
	C565.222229,134.000000 566.611084,134.000000 568.050354,134.263443 
	C568.733826,134.684586 569.366882,134.842300 570.428467,135.000000 
	C572.571289,135.000000 574.285645,135.000000 576.050354,135.263428 
	C576.733826,135.684570 577.366882,135.842285 578.416626,136.000000 
	C580.222229,136.000000 581.611084,136.000000 583.050354,136.263428 
	C583.733826,136.684586 584.366882,136.842285 585.428467,137.000000 
	C587.571289,137.000000 589.285645,137.000000 591.050354,137.263428 
	C591.733826,137.684586 592.366882,137.842285 593.416626,138.000000 
	C595.222229,138.000000 596.611084,138.000000 598.050354,138.263428 
	C598.733826,138.684586 599.366882,138.842300 600.428467,139.000000 
	C602.571289,139.000000 604.285645,139.000000 606.050354,139.263428 
	C606.733826,139.684570 607.366882,139.842285 608.416626,140.000000 
	C610.222229,140.000000 611.611084,140.000000 613.050354,140.263428 
	C613.733826,140.684570 614.366882,140.842285 615.428467,141.000000 
	C617.571289,141.000000 619.285645,141.000000 621.050354,141.263443 
	C621.733826,141.684586 622.366882,141.842300 623.416626,142.000000 
	C625.222229,142.000000 626.611084,142.000000 628.050354,142.263428 
	C628.733826,142.684586 629.366882,142.842285 630.428467,143.000000 
	C632.571289,143.000000 634.285645,143.000000 636.050354,143.263428 
	C636.733826,143.684586 637.366882,143.842285 638.416626,144.000000 
	C640.222229,144.000000 641.611084,144.000000 643.114868,144.346527 
	C644.833374,145.123627 646.437012,145.554230 648.040588,145.984833 
	C652.995667,157.380722 658.309448,168.636566 662.825134,180.204010 
	C670.391724,199.586823 675.160645,219.778214 678.856812,240.859283 
	C678.559387,242.002899 678.310913,242.503113 678.035645,243.243713 
	C678.008911,243.484085 677.962769,243.965637 677.962769,243.965637 
z"/>
<path fill="#DAE330" opacity="1.000000" stroke="none" 
	d="
M621.000000,141.000000 
	C619.285645,141.000000 617.571289,141.000000 615.231140,140.789215 
	C614.070251,140.385635 613.535095,140.192810 613.000000,140.000000 
	C611.611084,140.000000 610.222229,140.000000 608.219360,139.789215 
	C607.070251,139.385620 606.535095,139.192810 606.000000,139.000000 
	C604.285645,139.000000 602.571289,139.000000 600.231140,138.789215 
	C599.070251,138.385635 598.535095,138.192810 598.000000,138.000000 
	C596.611084,138.000000 595.222229,138.000000 593.219360,137.789215 
	C592.070251,137.385620 591.535095,137.192810 591.000000,137.000000 
	C589.285645,137.000000 587.571289,137.000000 585.231140,136.789215 
	C584.070251,136.385635 583.535095,136.192825 583.000000,136.000000 
	C581.611084,136.000000 580.222229,136.000000 578.219360,135.789215 
	C577.070251,135.385635 576.535095,135.192825 576.000000,135.000000 
	C574.285645,135.000000 572.571289,135.000000 570.231140,134.789215 
	C569.070251,134.385635 568.535095,134.192810 568.000000,134.000000 
	C566.611084,134.000000 565.222229,134.000000 563.219360,133.789215 
	C562.070251,133.385635 561.535095,133.192810 561.000000,133.000000 
	C559.217041,133.235870 557.434143,133.471756 555.033325,133.713837 
	C553.608704,132.830597 552.801819,131.941162 551.994995,131.051727 
	C557.208374,131.423111 562.457031,131.527832 567.629089,132.211548 
	C591.452759,135.360809 615.252869,138.688431 639.069336,141.893021 
	C641.034973,142.157516 643.060059,141.980225 645.505371,142.015610 
	C646.233276,142.510590 646.513306,142.998154 646.511719,143.741058 
	C645.153381,143.997589 644.076660,143.998795 643.000000,144.000000 
	C641.611084,144.000000 640.222229,144.000000 638.219360,143.789230 
	C637.070251,143.385635 636.535095,143.192825 636.000000,143.000000 
	C634.285645,143.000000 632.571289,143.000000 630.231140,142.789215 
	C629.070251,142.385635 628.535095,142.192810 628.000000,142.000000 
	C626.611084,142.000000 625.222229,142.000000 623.219360,141.789230 
	C622.070251,141.385635 621.535095,141.192825 621.000000,141.000000 
z"/>
<path fill="#CBF85A" opacity="1.000000" stroke="none" 
	d="
M681.995117,263.002441 
	C681.664734,260.944794 681.334351,258.887146 681.337769,256.414734 
	C682.114441,256.000000 682.557190,256.000000 683.000000,256.000000 
	C683.000000,258.041656 683.000000,260.083344 682.748779,262.562988 
	C682.330078,263.001495 682.162598,263.001984 681.995117,263.002441 
z"/>
<path fill="#DAE330" opacity="1.000000" stroke="none" 
	d="
M643.114868,144.346512 
	C644.076660,143.998795 645.153381,143.997589 646.635010,143.993790 
	C647.339355,144.466354 647.638733,144.941513 647.989380,145.700745 
	C646.437012,145.554230 644.833374,145.123627 643.114868,144.346512 
z"/>
<path fill="#CBF85A" opacity="1.000000" stroke="none" 
	d="
M681.996582,263.377106 
	C682.162598,263.001984 682.330078,263.001495 682.748779,263.000488 
	C683.471741,263.851288 683.943420,264.702606 684.207581,265.776947 
	C683.557190,266.000000 683.114441,266.000000 682.339661,266.000000 
	C682.004456,265.250580 682.001221,264.501190 681.996582,263.377106 
z"/>
<path fill="#CBF85A" opacity="1.000000" stroke="none" 
	d="
M683.207642,255.776947 
	C682.557190,256.000000 682.114441,256.000000 681.339661,256.000000 
	C681.004456,255.250244 681.001221,254.500488 681.247803,253.375549 
	C681.665100,253.000244 681.832581,253.000122 682.000000,253.000000 
	C682.471741,253.851303 682.943481,254.702591 683.207642,255.776947 
z"/>
<path fill="#CBF85A" opacity="1.000000" stroke="none" 
	d="
M680.007690,249.000000 
	C680.004456,248.250351 680.001221,247.500702 680.247803,246.375793 
	C680.665039,246.000366 680.832520,246.000183 681.000000,246.000000 
	C681.471741,246.851303 681.943481,247.702591 681.875488,248.776947 
	C680.893127,249.000000 680.450378,249.000000 680.007690,249.000000 
z"/>
<path fill="#CBF85A" opacity="1.000000" stroke="none" 
	d="
M678.062378,243.003326 
	C678.310913,242.503113 678.559387,242.002899 678.937622,241.253998 
	C679.837524,241.859650 680.607788,242.714005 680.903809,243.654068 
	C679.640442,243.494293 678.851440,243.248810 678.062378,243.003326 
z"/>
<path fill="#CBF85A" opacity="1.000000" stroke="none" 
	d="
M680.006836,249.359253 
	C680.450378,249.000000 680.893127,249.000000 681.667908,249.000000 
	C682.000000,250.066666 682.000000,251.133347 682.000000,252.600006 
	C681.832581,253.000122 681.665100,253.000244 681.246338,253.000687 
	C680.665405,251.906830 680.335754,250.812683 680.006836,249.359253 
z"/>
<path fill="#CBF85A" opacity="1.000000" stroke="none" 
	d="
M678.035645,243.243698 
	C678.851440,243.248810 679.640442,243.494293 680.714722,243.869904 
	C681.000000,244.444443 681.000000,244.888901 681.000000,245.666672 
	C680.832520,246.000183 680.665039,246.000366 680.246338,246.000977 
	C679.414429,245.494003 678.833801,244.986603 678.107910,244.222427 
	C677.962769,243.965637 678.008911,243.484085 678.035645,243.243698 
z"/>
<path fill="#D5EB3D" opacity="1.000000" stroke="none" 
	d="
M493.391846,380.169037 
	C471.080200,375.114929 449.123535,370.072784 427.168488,365.023468 
	C423.621124,364.207642 420.081116,363.359955 416.268158,362.266296 
	C417.831024,361.337097 419.623199,360.246887 421.502258,360.067657 
	C435.112518,358.769348 448.740356,357.654999 463.129089,356.238770 
	C469.656982,355.350403 475.475555,355.025543 481.170044,354.006958 
	C509.416351,348.954437 537.651428,343.832550 565.842896,338.484375 
	C575.297546,336.690735 584.611633,334.156189 593.934326,332.303284 
	C593.087097,333.658539 592.453491,334.867035 591.478821,335.652130 
	C583.667419,341.943970 575.735474,348.087646 567.988831,354.457092 
	C566.643860,355.562866 565.998596,357.519562 565.030090,359.083221 
	C554.072205,362.655609 543.143127,366.319824 532.148132,369.774231 
	C521.447083,373.136322 510.694580,376.338776 499.924927,379.474854 
	C497.963745,380.045959 495.811432,379.960815 493.391846,380.169037 
z"/>
<path fill="#D5EB3D" opacity="1.000000" stroke="none" 
	d="
M565.368591,359.016785 
	C565.998596,357.519562 566.643860,355.562866 567.988831,354.457092 
	C575.735474,348.087646 583.667419,341.943970 591.478821,335.652130 
	C592.453491,334.867035 593.087097,333.658539 594.064331,332.104614 
	C594.454895,331.315674 594.697205,331.113037 595.290161,330.924866 
	C596.735107,330.925323 597.866760,330.955994 598.998474,330.986694 
	C591.673523,337.319763 584.330627,343.632141 577.033142,349.996704 
	C574.340637,352.345001 571.755310,354.816254 569.049622,357.559357 
	C567.887817,358.241638 566.797424,358.595978 565.368591,359.016785 
z"/>
<path fill="#DFD825" opacity="1.000000" stroke="none" 
	d="
M599.295166,330.831390 
	C597.866760,330.955994 596.735107,330.925323 595.297668,330.497803 
	C595.831177,325.056519 596.688904,320.015076 597.506104,314.967072 
	C599.666992,301.618805 601.810181,288.267700 604.149780,274.610962 
	C606.908875,261.877808 609.478638,249.451355 612.302979,236.751068 
	C615.068970,224.318161 617.580261,212.159088 620.424805,200.063568 
	C622.054565,201.133850 623.421082,202.063034 624.636047,203.160141 
	C631.405151,209.272552 638.253845,215.303558 644.854736,221.593872 
	C654.343506,230.636246 663.642639,239.877563 673.022766,249.033966 
	C666.892944,257.635315 661.410156,266.801971 654.494629,274.716797 
	C641.309143,289.807526 627.428650,304.301147 613.568787,318.786346 
	C609.362366,323.182617 604.275452,326.736420 599.295166,330.831390 
z"/>
<path fill="#DFD825" opacity="1.000000" stroke="none" 
	d="
M673.274475,248.890060 
	C663.642639,239.877563 654.343506,230.636246 644.854736,221.593872 
	C638.253845,215.303558 631.405151,209.272552 624.636047,203.160141 
	C623.421082,202.063034 622.054565,201.133850 620.432373,199.772827 
	C620.404358,198.945419 620.702148,198.472321 620.999878,197.999207 
	C624.979797,201.146072 629.195312,204.039810 632.897766,207.484894 
	C646.833069,220.451569 660.601257,233.597794 674.722839,246.840759 
	C674.517822,247.585205 674.022034,248.165695 673.274475,248.890060 
z"/>
<path fill="#E4CD1A" opacity="1.000000" stroke="none" 
	d="
M603.960449,274.917725 
	C601.810181,288.267700 599.666992,301.618805 597.506104,314.967072 
	C596.688904,320.015076 595.831177,325.056519 594.984436,330.528015 
	C594.697205,331.113037 594.454895,331.315674 594.119934,331.761658 
	C584.611633,334.156189 575.297546,336.690735 565.842896,338.484375 
	C537.651428,343.832550 509.416351,348.954437 481.170044,354.006958 
	C475.475555,355.025543 469.656982,355.350403 463.447144,355.990601 
	C461.822906,355.477722 460.647156,354.969269 459.461121,353.984009 
	C476.777893,343.933594 494.138672,334.420013 511.394135,324.719086 
	C513.868530,323.327972 515.834290,321.032043 518.434326,319.110474 
	C520.597473,318.682037 522.549438,318.657257 524.092651,317.850525 
	C530.125793,314.696716 536.085754,311.391907 541.966675,307.961151 
	C548.692627,304.037537 555.305542,299.920288 562.328674,295.868744 
	C569.683044,292.190918 576.641602,288.463348 583.679382,284.891693 
	C590.396851,281.482544 597.196777,278.235840 603.960449,274.917725 
z"/>
<path fill="#E9C012" opacity="1.000000" stroke="none" 
	d="
M518.035461,319.154846 
	C515.834290,321.032043 513.868530,323.327972 511.394135,324.719086 
	C494.138672,334.420013 476.777893,343.933594 459.222595,353.760315 
	C448.565186,351.362122 437.902863,349.393219 427.752747,345.925262 
	C402.176819,337.186951 376.811432,327.828613 351.419678,318.559784 
	C348.203125,317.385651 345.333557,315.261139 342.106323,313.289673 
	C341.909454,313.002411 341.994232,312.990051 342.409790,312.817383 
	C343.296844,312.487579 343.772217,312.182190 344.239136,312.194611 
	C362.766296,312.686951 381.290924,313.297546 399.820343,313.669861 
	C405.227112,313.778503 410.647308,313.218262 416.411102,313.137512 
	C419.514404,313.868805 422.249542,314.782104 425.024658,314.926544 
	C440.272308,315.720032 455.530243,316.314331 470.783722,316.998260 
	C486.534882,317.704437 502.284912,318.434967 518.035461,319.154846 
z"/>
<path fill="#EEB20A" opacity="1.000000" stroke="none" 
	d="
M416.061371,312.964600 
	C410.647308,313.218262 405.227112,313.778503 399.820343,313.669861 
	C381.290924,313.297546 362.766296,312.686951 344.239136,312.194611 
	C343.772217,312.182190 343.296844,312.487579 342.451904,312.809357 
	C341.578125,312.087494 341.077881,311.201019 340.308502,310.152283 
	C334.759125,301.582520 328.829529,293.505859 324.339905,284.695465 
	C316.139832,268.603699 308.792053,252.077637 301.013245,235.366394 
	C300.958038,234.556152 300.978363,234.112259 301.006683,233.335190 
	C301.014709,233.002029 301.497681,232.995148 302.035065,233.159561 
	C317.051880,243.665955 331.487640,254.070145 346.054657,264.287262 
	C348.418274,265.945068 351.363617,266.773376 354.379486,268.045532 
	C373.113831,281.208435 391.527588,294.284729 409.879303,307.447479 
	C412.110962,309.048126 414.008820,311.114227 416.061371,312.964600 
z"/>
<path fill="#F3A305" opacity="1.000000" stroke="none" 
	d="
M349.641479,160.025742 
	C350.432678,159.969894 350.887695,159.985291 351.903412,160.243759 
	C352.644196,161.323593 352.824219,162.160355 352.755646,163.329376 
	C352.353119,176.586349 352.162415,189.510971 352.129028,202.436005 
	C352.126831,203.287384 353.325470,204.141861 353.974457,205.463776 
	C353.977295,224.955124 353.971252,243.977554 353.552124,263.000000 
	C351.758514,263.000702 350.377960,263.001404 348.998688,263.001038 
	C349.000000,263.000000 348.998199,263.003540 348.935242,262.661407 
	C346.580627,260.880157 344.289001,259.441040 341.998688,258.000977 
	C342.000000,258.000000 341.998199,258.003601 341.933167,257.658203 
	C340.577881,256.542511 339.287628,255.772171 337.998688,255.000931 
	C338.000000,255.000000 337.998199,255.003326 337.935242,254.661224 
	C335.580627,252.880020 333.289001,251.440933 330.998688,250.000916 
	C331.000000,250.000000 330.998199,250.003326 330.935242,249.661224 
	C328.580627,247.880020 326.289001,246.440933 323.998688,245.000916 
	C324.000000,245.000000 323.998199,245.003326 323.936249,244.663269 
	C319.248657,241.216095 314.623016,238.108978 309.998688,235.000931 
	C310.000000,235.000000 309.998199,235.003326 309.937042,234.665253 
	C307.904053,232.881363 305.932190,231.435532 303.960358,229.989700 
	C308.798859,220.402023 312.834625,210.291321 318.661743,201.347778 
	C327.674225,187.515289 337.904144,174.475479 347.653992,161.125961 
	C348.008820,160.640106 348.746155,160.433640 349.641479,160.025742 
z"/>
<path fill="#EEB20A" opacity="1.000000" stroke="none" 
	d="
M354.040070,267.985107 
	C351.363617,266.773376 348.418274,265.945068 346.054657,264.287262 
	C331.487640,254.070145 317.051880,243.665955 302.276550,233.155838 
	C301.980621,232.987701 301.995880,232.503983 302.001831,232.262299 
	C302.178131,232.016495 302.348541,232.012375 303.119019,232.059509 
	C305.812134,233.074966 307.905182,234.039139 309.998199,235.003326 
	C309.998199,235.003326 310.000000,235.000000 310.167297,235.292572 
	C314.889160,238.724533 319.443695,241.863922 323.998199,245.003326 
	C323.998199,245.003326 324.000000,245.000000 324.166321,245.291245 
	C326.554474,247.056107 328.776337,248.529709 330.998199,250.003326 
	C330.998199,250.003326 331.000000,250.000000 331.166321,250.291245 
	C333.554474,252.056107 335.776337,253.529709 337.998199,255.003326 
	C337.998199,255.003326 338.000000,255.000000 338.160950,255.284729 
	C339.547333,256.380829 340.772766,257.192230 341.998199,258.003601 
	C341.998199,258.003601 342.000000,258.000000 342.166290,258.291321 
	C344.554443,260.056274 346.776337,261.529907 348.998199,263.003540 
	C348.998199,263.003540 349.000000,263.000000 349.161377,263.285278 
	C350.553833,264.380127 351.784882,265.189667 353.125549,266.256348 
	C353.503479,267.004059 353.771759,267.494568 354.040070,267.985107 
z"/>
<path fill="#F3A305" opacity="1.000000" stroke="none" 
	d="
M309.937042,234.665253 
	C307.905182,234.039139 305.812134,233.074966 303.374664,232.057098 
	C303.200317,231.462540 303.370392,230.921661 303.750427,230.185242 
	C305.932190,231.435532 307.904053,232.881363 309.937042,234.665253 
z"/>
<path fill="#F89401" opacity="1.000000" stroke="none" 
	d="
M355.999084,158.057022 
	C386.418274,146.462921 417.519440,137.191544 449.436493,130.728775 
	C450.971008,130.418060 452.645111,130.796661 454.628906,130.947433 
	C455.003571,131.040604 455.006042,131.144806 454.984406,131.485550 
	C453.789734,133.128677 452.804993,134.692215 451.415375,135.694214 
	C431.497772,150.055893 411.547760,164.372955 391.557983,178.634033 
	C380.083405,186.820206 368.522949,194.886002 356.926697,202.594421 
	C356.568146,199.898361 356.053375,197.615387 356.038452,195.329163 
	C355.957275,182.905548 355.999420,170.481155 355.999084,158.057022 
z"/>
<path fill="#EEB20A" opacity="1.000000" stroke="none" 
	d="
M551.643433,130.883728 
	C552.801819,131.941162 553.608704,132.830597 554.679504,133.867310 
	C563.754639,142.412460 572.584229,150.791077 581.360352,159.225372 
	C582.996094,160.797348 584.416992,162.592804 585.613525,164.618546 
	C575.513550,161.977066 565.737183,159.002167 555.649597,155.868073 
	C553.115417,154.603516 551.003052,153.078583 548.652100,152.458572 
	C528.085022,147.034393 507.544525,141.479340 486.849274,136.584030 
	C476.391144,134.110245 465.630127,132.917023 455.006042,131.144806 
	C455.006042,131.144806 455.003571,131.040604 455.006409,130.987915 
	C458.953735,129.651886 462.826141,128.037460 466.858826,127.159401 
	C473.659210,125.678711 480.561218,124.664871 487.723145,123.204597 
	C505.070038,124.820549 522.120178,126.634979 539.154175,128.590271 
	C543.227722,129.057846 547.247375,129.994705 551.643433,130.883728 
z"/>
<path fill="#D5EB3D" opacity="1.000000" stroke="none" 
	d="
M510.632843,77.056381 
	C509.911499,78.076065 509.018951,79.615524 507.709198,80.170792 
	C488.012085,88.521149 468.232391,96.676743 448.537872,105.033096 
	C442.652893,107.530083 436.970123,110.503525 431.102112,113.583969 
	C429.842377,113.781731 428.675262,113.654221 427.248505,113.287193 
	C429.472778,111.485229 431.797150,109.544312 434.465515,108.419571 
	C458.131592,98.444130 481.856415,88.607994 505.572723,78.752037 
	C507.100189,78.117264 508.700928,77.658829 510.632843,77.056381 
z"/>
<path fill="#F89401" opacity="1.000000" stroke="none" 
	d="
M355.742249,158.151733 
	C355.999420,170.481155 355.957275,182.905548 356.038452,195.329163 
	C356.053375,197.615387 356.568146,199.898361 356.692230,202.817139 
	C355.701599,203.645828 354.870941,203.840210 354.028870,203.562546 
	C354.011658,191.637711 354.051178,180.184525 353.955444,168.732483 
	C353.939423,166.818176 353.336151,164.908783 353.004272,162.997116 
	C352.824219,162.160355 352.644196,161.323593 352.244629,160.248840 
	C352.494141,159.694931 352.963196,159.379013 353.716553,159.002686 
	C354.495728,158.710342 354.990570,158.478409 355.742249,158.151733 
z"/>
<path fill="#F3A305" opacity="1.000000" stroke="none" 
	d="
M620.961975,197.655304 
	C620.702148,198.472321 620.404358,198.945419 620.099121,199.709274 
	C617.580261,212.159088 615.068970,224.318161 612.043823,236.521851 
	C610.657166,234.984161 609.795654,233.395477 608.909424,231.820663 
	C605.938721,226.541473 602.959106,221.267288 599.841492,215.666473 
	C597.681702,211.568222 595.880371,207.658173 593.607910,204.044449 
	C583.108276,187.347626 570.618103,172.214798 557.351562,158.064453 
	C560.841858,159.247528 563.917236,160.516754 567.088867,161.463623 
	C574.495117,163.674683 581.947571,165.730881 589.381348,167.849792 
	C599.895569,177.670319 610.409851,187.490845 620.961975,197.655304 
z"/>
<path fill="#F3A305" opacity="1.000000" stroke="none" 
	d="
M589.162842,167.614014 
	C581.947571,165.730881 574.495117,163.674683 567.088867,161.463623 
	C563.917236,160.516754 560.841858,159.247528 557.140137,157.871155 
	C556.358643,157.087433 556.159729,156.557343 555.960815,156.027252 
	C565.737183,159.002167 575.513550,161.977066 585.685669,164.956421 
	C587.035706,165.766663 587.990051,166.572449 589.162842,167.614014 
z"/>
<path fill="#DAE330" opacity="1.000000" stroke="none" 
	d="
M613.050354,140.263428 
	C613.535095,140.192810 614.070251,140.385635 614.802673,140.789215 
	C614.366882,140.842285 613.733826,140.684570 613.050354,140.263428 
z"/>
<path fill="#DAE330" opacity="1.000000" stroke="none" 
	d="
M561.050354,133.263428 
	C561.535095,133.192810 562.070251,133.385635 562.802673,133.789215 
	C562.366882,133.842300 561.733826,133.684586 561.050354,133.263428 
z"/>
<path fill="#DAE330" opacity="1.000000" stroke="none" 
	d="
M568.050354,134.263443 
	C568.535095,134.192810 569.070251,134.385635 569.802673,134.789230 
	C569.366882,134.842300 568.733826,134.684586 568.050354,134.263443 
z"/>
<path fill="#DAE330" opacity="1.000000" stroke="none" 
	d="
M576.050354,135.263428 
	C576.535095,135.192825 577.070251,135.385635 577.802673,135.789215 
	C577.366882,135.842285 576.733826,135.684570 576.050354,135.263428 
z"/>
<path fill="#DAE330" opacity="1.000000" stroke="none" 
	d="
M583.050354,136.263428 
	C583.535095,136.192825 584.070251,136.385635 584.802673,136.789215 
	C584.366882,136.842285 583.733826,136.684586 583.050354,136.263428 
z"/>
<path fill="#DAE330" opacity="1.000000" stroke="none" 
	d="
M591.050354,137.263428 
	C591.535095,137.192810 592.070251,137.385620 592.802673,137.789215 
	C592.366882,137.842285 591.733826,137.684586 591.050354,137.263428 
z"/>
<path fill="#DAE330" opacity="1.000000" stroke="none" 
	d="
M598.050354,138.263428 
	C598.535095,138.192810 599.070251,138.385635 599.802673,138.789215 
	C599.366882,138.842300 598.733826,138.684586 598.050354,138.263428 
z"/>
<path fill="#DAE330" opacity="1.000000" stroke="none" 
	d="
M606.050354,139.263428 
	C606.535095,139.192810 607.070251,139.385620 607.802673,139.789215 
	C607.366882,139.842285 606.733826,139.684570 606.050354,139.263428 
z"/>
<path fill="#DAE330" opacity="1.000000" stroke="none" 
	d="
M621.050354,141.263458 
	C621.535095,141.192825 622.070251,141.385635 622.802673,141.789246 
	C622.366882,141.842300 621.733826,141.684586 621.050354,141.263458 
z"/>
<path fill="#DAE330" opacity="1.000000" stroke="none" 
	d="
M628.050354,142.263428 
	C628.535095,142.192810 629.070251,142.385635 629.802673,142.789215 
	C629.366882,142.842285 628.733826,142.684586 628.050354,142.263428 
z"/>
<path fill="#DAE330" opacity="1.000000" stroke="none" 
	d="
M636.050354,143.263443 
	C636.535095,143.192825 637.070251,143.385635 637.802673,143.789230 
	C637.366882,143.842285 636.733826,143.684586 636.050354,143.263443 
z"/>
<path fill="#F89401" opacity="1.000000" stroke="none" 
	d="
M599.982910,215.991180 
	C602.959106,221.267288 605.938721,226.541473 608.909424,231.820663 
	C609.795654,233.395477 610.657166,234.984161 611.789185,236.795700 
	C609.478638,249.451355 606.908875,261.877808 604.149780,274.610962 
	C597.196777,278.235840 590.396851,281.482544 583.679382,284.891693 
	C576.641602,288.463348 569.683044,292.190918 562.354248,295.515594 
	C562.488037,294.150146 562.803955,293.009949 563.449646,292.105103 
	C574.359619,276.817383 583.812622,260.715240 590.455933,243.097168 
	C593.834106,234.138214 596.819824,225.031250 599.982910,215.991180 
z"/>
<path fill="#FE8200" opacity="1.000000" stroke="none" 
	d="
M599.841492,215.666473 
	C596.819824,225.031250 593.834106,234.138214 590.455933,243.097168 
	C583.812622,260.715240 574.359619,276.817383 563.449646,292.105103 
	C562.803955,293.009949 562.488037,294.150146 561.993103,295.533997 
	C555.305542,299.920288 548.692627,304.037537 541.966675,307.961151 
	C536.085754,311.391907 530.125793,314.696716 524.092651,317.850525 
	C522.549438,318.657257 520.597473,318.682037 518.434326,319.110443 
	C502.284912,318.434967 486.534882,317.704437 470.783722,316.998260 
	C455.530243,316.314331 440.272308,315.720032 425.024658,314.926544 
	C422.249542,314.782104 419.514404,313.868805 416.411102,313.137512 
	C414.008820,311.114227 412.110962,309.048126 409.879303,307.447479 
	C391.527588,294.284729 373.113831,281.208435 354.379486,268.045532 
	C353.771759,267.494568 353.503479,267.004059 353.351013,266.020752 
	C353.632965,264.685333 353.799072,263.842651 353.965179,263.000000 
	C353.971252,243.977554 353.977295,224.955124 353.992798,205.223724 
	C354.002197,204.514771 354.040283,204.034592 354.040283,204.034592 
	C354.870941,203.840210 355.701599,203.645828 356.766724,203.228729 
	C368.522949,194.886002 380.083405,186.820206 391.557983,178.634033 
	C411.547760,164.372955 431.497772,150.055893 451.415375,135.694214 
	C452.804993,134.692215 453.789734,133.128677 454.984406,131.485550 
	C465.630127,132.917023 476.391144,134.110245 486.849274,136.584030 
	C507.544525,141.479340 528.085022,147.034393 548.652100,152.458572 
	C551.003052,153.078583 553.115417,154.603516 555.649597,155.868057 
	C556.159729,156.557343 556.358643,157.087433 556.768921,157.810822 
	C570.618103,172.214798 583.108276,187.347626 593.607910,204.044449 
	C595.880371,207.658173 597.681702,211.568222 599.841492,215.666473 
z"/>
<path fill="#F3A305" opacity="1.000000" stroke="none" 
	d="
M354.028870,203.562546 
	C354.040283,204.034592 354.002197,204.514771 353.983887,204.754822 
	C353.325470,204.141861 352.126831,203.287384 352.129028,202.436005 
	C352.162415,189.510971 352.353119,176.586349 352.755615,163.329376 
	C353.336151,164.908783 353.939423,166.818176 353.955444,168.732483 
	C354.051178,180.184525 354.011658,191.637711 354.028870,203.562546 
z"/>
<path fill="#F3A305" opacity="1.000000" stroke="none" 
	d="
M323.936249,244.663269 
	C319.443695,241.863922 314.889160,238.724533 310.166016,235.293503 
	C314.623016,238.108978 319.248657,241.216095 323.936249,244.663269 
z"/>
<path fill="#F3A305" opacity="1.000000" stroke="none" 
	d="
M348.935242,262.661407 
	C346.776337,261.529907 344.554443,260.056274 342.164978,258.292297 
	C344.289001,259.441040 346.580627,260.880157 348.935242,262.661407 
z"/>
<path fill="#F3A305" opacity="1.000000" stroke="none" 
	d="
M337.935242,254.661224 
	C335.776337,253.529709 333.554474,252.056107 331.164978,250.292175 
	C333.289001,251.440933 335.580627,252.880020 337.935242,254.661224 
z"/>
<path fill="#F3A305" opacity="1.000000" stroke="none" 
	d="
M330.935242,249.661224 
	C328.776337,248.529709 326.554474,247.056107 324.164978,245.292175 
	C326.289001,246.440933 328.580627,247.880020 330.935242,249.661224 
z"/>
<path fill="#F3A305" opacity="1.000000" stroke="none" 
	d="
M353.552124,263.000000 
	C353.799072,263.842651 353.632965,264.685333 353.241394,265.763611 
	C351.784882,265.189667 350.553833,264.380127 349.160065,263.286346 
	C350.377960,263.001404 351.758514,263.000702 353.552124,263.000000 
z"/>
<path fill="#F3A305" opacity="1.000000" stroke="none" 
	d="
M341.933167,257.658203 
	C340.772766,257.192230 339.547333,256.380829 338.159668,255.285660 
	C339.287628,255.772171 340.577881,256.542511 341.933167,257.658203 
z"/>
</svg>