<?xml version="1.0" encoding="utf-8" ?>
<svg baseProfile="full" height="557" version="1.1" width="800" xmlns="http://www.w3.org/2000/svg" xmlns:ev="http://www.w3.org/2001/xml-events" xmlns:xlink="http://www.w3.org/1999/xlink"><defs /><polygon fill="#7faee3" opacity="1.0" points="801.7572287571159,258.0 744.4824115447368,422.14112658547856 537.6687397226807,510.14494837269035 300.7539018335944,513.5249706648948 82.47087145954748,428.74087667893923 -9.179042870936144,258.00000000000006 93.83455602158585,93.00750264706272 299.18417568569635,-0.8886381899640128 538.4263179448288,4.231684859193962 763.5795721015268,84.19847477087069" stroke="none" /><polygon fill="#7faee3" opacity="1.0" points="724.5979123888529,326.9077658372198 632.2873160431483,461.43619003394576 420.0,514.5071381368878 214.350752414835,455.0748897855497 91.64671765449128,332.28183244690837 107.75069148254846,187.36129448357386 225.92688338169893,72.01858495956472 419.99999999999994,10.425896260391283 613.2637194675156,72.79423503442192 745.6165313958386,184.3372899630768" stroke="none" /><polygon fill="#a3d3e3" opacity="0.9" points="695.586868459669,258.0 668.3761424746874,383.6423719506587 509.1110724767276,448.9505177163775 334.07197073777775,442.1297744256701 181.9381745793262,378.42482067215997 118.01979734694885,258.0 193.69649904705696,143.52318931612518 329.11413029490814,63.246380826323275 503.62495115086665,78.80534694007787 650.4199163786616,141.44087902308135" stroke="none" /><polygon fill="#b6e7b6" opacity="0.8" points="645.2260792941865,308.9518460278419 569.9173030793797,401.6666378712629 420.0,418.05296446902196 282.7146869029558,389.56132718924846 192.5543050248442,309.4539793366139 193.5477251105424,206.77075745854808 274.12693584981287,118.20898020464071 419.99999999999994,103.8415139669955 571.7617939019767,112.56577566857626 646.3451763297544,206.79498586646994" stroke="none" /><polygon fill="#e6f97a" opacity="0.7" points="610.5747744012513,258.0 577.536372822505,337.6905989146682 476.2479537232763,378.5302055673437 363.4274319363371,379.2258012394886 257.6570652366557,340.1220234353883 238.68194436171197,258.0 275.61618699299186,184.96269232327887 362.6711300131357,135.15356689321004 473.92915621537963,142.43859990548827 565.4141581622248,184.44148683252814" stroke="none" /><polygon fill="#ffcc33" opacity="0.7" points="547.9716952797814,286.95044008336396 497.6854882081986,332.446462636471 420.0,353.37303380674894 335.4551612263217,339.01981883672914 295.2246485611382,286.22734611598264 299.66321489404015,230.77677005514244 338.7032515207701,180.09284529556658 420.0,160.7950529817008 500.3878016851687,180.9638943821252 549.0649459499042,228.80223891371978" stroke="none" /><polygon fill="#ff9900" opacity="0.9" points="505.6408062900829,258.0 489.48780617165477,293.1507705291948 443.91689314678086,309.2500074526406 394.0600180177107,313.58515739292943 353.50319084514524,291.63775903000703 343.7258932749394,258.0 357.32368259364915,226.29485672172072 393.9415950561111,202.16108148403111 445.04669444286355,204.32901234358087 483.46721358512286,225.8947777492495" stroke="none" /></svg>